<svg xmlns="http://www.w3.org/2000/svg" xmlns:xlink="http://www.w3.org/1999/xlink" contentStyleType="text/css" height="613px" preserveAspectRatio="none" style="width:780px;height:613px;background:#FFFFFF;" version="1.1" viewBox="0 0 780 613" width="780px" zoomAndPan="magnify"><title>Seleccionar producto del cat&#225;logo</title><defs/><g><text fill="#000000" font-family="sans-serif" font-size="14" font-weight="bold" lengthAdjust="spacing" textLength="228.7311" x="274.7464" y="28.0059">Seleccionar producto del cat&#225;logo</text><line style="stroke:#181818;stroke-width:0.5;stroke-dasharray:5.0,5.0;" x1="32" x2="32" y1="119.5999" y2="532.1998"/><line style="stroke:#181818;stroke-width:0.5;stroke-dasharray:5.0,5.0;" x1="215.2812" x2="215.2812" y1="119.5999" y2="532.1998"/><line style="stroke:#181818;stroke-width:0.5;stroke-dasharray:5.0,5.0;" x1="335.0789" x2="335.0789" y1="119.5999" y2="532.1998"/><line style="stroke:#181818;stroke-width:0.5;stroke-dasharray:5.0,5.0;" x1="470.5639" x2="470.5639" y1="119.5999" y2="532.1998"/><line style="stroke:#181818;stroke-width:0.5;stroke-dasharray:5.0,5.0;" x1="592.212" x2="592.212" y1="119.5999" y2="532.1998"/><line style="stroke:#181818;stroke-width:0.5;stroke-dasharray:5.0,5.0;" x1="695.861" x2="695.861" y1="363.2998" y2="532.1998"/><line style="stroke:#181818;stroke-width:0.5;stroke-dasharray:5.0,5.0;" x1="753.7781" x2="753.7781" y1="291.8999" y2="532.1998"/><text fill="#000000" font-family="sans-serif" font-size="14" lengthAdjust="spacing" textLength="48.2298" x="5" y="115.8059">Usuario</text><ellipse cx="32.1149" cy="51.2999" fill="#E2E2F0" rx="8" ry="8" style="stroke:#181818;stroke-width:0.5;"/><path d="M32.1149,59.2999 L32.1149,86.2999 M19.1149,67.2999 L45.1149,67.2999 M32.1149,86.2999 L19.1149,101.2999 M32.1149,86.2999 L45.1149,101.2999 " fill="none" style="stroke:#181818;stroke-width:0.5;"/><text fill="#000000" font-family="sans-serif" font-size="14" lengthAdjust="spacing" textLength="48.2298" x="5" y="544.2058">Usuario</text><ellipse cx="32.1149" cy="556.4998" fill="#E2E2F0" rx="8" ry="8" style="stroke:#181818;stroke-width:0.5;"/><path d="M32.1149,564.4998 L32.1149,591.4998 M19.1149,572.4998 L45.1149,572.4998 M32.1149,591.4998 L19.1149,606.4998 M32.1149,591.4998 L45.1149,606.4998 " fill="none" style="stroke:#181818;stroke-width:0.5;"/><rect fill="#FFFF99" height="30.7999" rx="2.5" ry="2.5" style="stroke:#181818;stroke-width:0.5;" width="77.7977" x="177.2812" y="87.7999"/><text fill="#000000" font-family="sans-serif" font-size="14" lengthAdjust="spacing" textLength="63.7977" x="184.2812" y="107.8059">Minitienda</text><rect fill="#FFFF99" height="30.7999" rx="2.5" ry="2.5" style="stroke:#181818;stroke-width:0.5;" width="77.7977" x="177.2812" y="531.1998"/><text fill="#000000" font-family="sans-serif" font-size="14" lengthAdjust="spacing" textLength="63.7977" x="184.2812" y="551.2058">Minitienda</text><rect fill="#FFFF99" height="30.7999" rx="2.5" ry="2.5" style="stroke:#181818;stroke-width:0.5;" width="140.8115" x="265.0789" y="87.7999"/><text fill="#000000" font-family="sans-serif" font-size="14" lengthAdjust="spacing" textLength="126.8115" x="272.0789" y="107.8059">Carrito de la compra</text><rect fill="#FFFF99" height="30.7999" rx="2.5" ry="2.5" style="stroke:#181818;stroke-width:0.5;" width="140.8115" x="265.0789" y="531.1998"/><text fill="#000000" font-family="sans-serif" font-size="14" lengthAdjust="spacing" textLength="126.8115" x="272.0789" y="551.2058">Carrito de la compra</text><rect fill="#FF9999" height="47.5999" rx="2.5" ry="2.5" style="stroke:#181818;stroke-width:0.5;" width="73.1218" x="434.5639" y="71"/><text fill="#000000" font-family="sans-serif" font-size="14" lengthAdjust="spacing" textLength="59.1218" x="441.5639" y="91.0059">MiniStore</text><text fill="#000000" font-family="sans-serif" font-size="14" lengthAdjust="spacing" textLength="50.5538" x="445.8478" y="107.8059">(servlet)</text><rect fill="#FF9999" height="47.5999" rx="2.5" ry="2.5" style="stroke:#181818;stroke-width:0.5;" width="73.1218" x="434.5639" y="531.1998"/><text fill="#000000" font-family="sans-serif" font-size="14" lengthAdjust="spacing" textLength="59.1218" x="441.5639" y="551.2058">MiniStore</text><text fill="#000000" font-family="sans-serif" font-size="14" lengthAdjust="spacing" textLength="50.5538" x="445.8478" y="568.0057">(servlet)</text><rect fill="#FF9999" height="30.7999" rx="2.5" ry="2.5" style="stroke:#181818;stroke-width:0.5;" width="81.6757" x="552.212" y="87.7999"/><text fill="#000000" font-family="sans-serif" font-size="14" lengthAdjust="spacing" textLength="67.6757" x="559.212" y="107.8059">CartHelper</text><rect fill="#FF9999" height="30.7999" rx="2.5" ry="2.5" style="stroke:#181818;stroke-width:0.5;" width="81.6757" x="552.212" y="531.1998"/><text fill="#000000" font-family="sans-serif" font-size="14" lengthAdjust="spacing" textLength="67.6757" x="559.212" y="551.2058">CartHelper</text><rect fill="#99FF99" height="30.7999" rx="2.5" ry="2.5" style="stroke:#181818;stroke-width:0.5;" width="34.2159" x="678.861" y="531.1998"/><text fill="#000000" font-family="sans-serif" font-size="14" lengthAdjust="spacing" textLength="20.2159" x="685.861" y="551.2058">CD</text><rect fill="#99FF99" height="30.7999" rx="2.5" ry="2.5" style="stroke:#181818;stroke-width:0.5;" width="40.4459" x="733.7781" y="531.1998"/><text fill="#000000" font-family="sans-serif" font-size="14" lengthAdjust="spacing" textLength="26.4459" x="740.7781" y="551.2058">Cart</text><polygon fill="#181818" points="204.18,147.1999,214.18,151.1999,204.18,155.1999,208.18,151.1999" style="stroke:#181818;stroke-width:1.0;"/><line style="stroke:#181818;stroke-width:1.0;stroke-dasharray:2.0,2.0;" x1="32.1149" x2="210.18" y1="151.1999" y2="151.1999"/><text fill="#000000" font-family="sans-serif" font-size="13" font-weight="bold" lengthAdjust="spacing" textLength="7.228" x="39.1149" y="145.6769">1</text><text fill="#000000" font-family="sans-serif" font-size="13" lengthAdjust="spacing" textLength="148.8371" x="50.3429" y="145.6769">Selecciona CD y cantidad</text><polygon fill="#181818" points="459.1247,176.7999,469.1247,180.7999,459.1247,184.7999,463.1247,180.7999" style="stroke:#181818;stroke-width:1.0;"/><line style="stroke:#181818;stroke-width:1.0;" x1="216.18" x2="465.1247" y1="180.7999" y2="180.7999"/><text fill="#000000" font-family="sans-serif" font-size="13" font-weight="bold" lengthAdjust="spacing" textLength="7.228" x="223.18" y="175.2769">2</text><text fill="#000000" font-family="sans-serif" font-size="13" lengthAdjust="spacing" textLength="70.0701" x="234.4081" y="175.2769">addToCart()</text><polygon fill="#181818" points="581.0499,206.3999,591.0499,210.3999,581.0499,214.3999,585.0499,210.3999" style="stroke:#181818;stroke-width:1.0;"/><line style="stroke:#181818;stroke-width:1.0;" x1="471.1247" x2="587.0499" y1="210.3999" y2="210.3999"/><text fill="#000000" font-family="sans-serif" font-size="13" font-weight="bold" lengthAdjust="spacing" textLength="7.228" x="478.1247" y="204.8769">3</text><text fill="#000000" font-family="sans-serif" font-size="13" lengthAdjust="spacing" textLength="70.0701" x="489.3528" y="204.8769">addToCart()</text><line style="stroke:#181818;stroke-width:1.0;" x1="593.0499" x2="635.0499" y1="239.9999" y2="239.9999"/><line style="stroke:#181818;stroke-width:1.0;" x1="635.0499" x2="635.0499" y1="239.9999" y2="252.9999"/><line style="stroke:#181818;stroke-width:1.0;" x1="594.0499" x2="635.0499" y1="252.9999" y2="252.9999"/><polygon fill="#181818" points="604.0499,248.9999,594.0499,252.9999,604.0499,256.9999,600.0499,252.9999" style="stroke:#181818;stroke-width:1.0;"/><text fill="#000000" font-family="sans-serif" font-size="13" font-weight="bold" lengthAdjust="spacing" textLength="7.228" x="600.0499" y="234.4769">4</text><text fill="#000000" font-family="sans-serif" font-size="13" lengthAdjust="spacing" textLength="76.5571" x="611.2779" y="234.4769">retrieveCart()</text><line style="stroke:#181818;stroke-width:1.0;" x1="731.7781" x2="721.7781" y1="282.5999" y2="278.5999"/><line style="stroke:#181818;stroke-width:1.0;" x1="731.7781" x2="721.7781" y1="282.5999" y2="286.5999"/><line style="stroke:#181818;stroke-width:1.0;stroke-dasharray:2.0,2.0;" x1="593.0499" x2="732.7781" y1="282.5999" y2="282.5999"/><text fill="#000000" font-family="sans-serif" font-size="13" font-weight="bold" lengthAdjust="spacing" textLength="7.228" x="600.0499" y="277.0769">5</text><text fill="#000000" font-family="sans-serif" font-size="13" lengthAdjust="spacing" textLength="50.5831" x="611.2779" y="277.0769">&#171;create&#187;</text><rect fill="#99FF99" height="30.7999" rx="2.5" ry="2.5" style="stroke:#181818;stroke-width:0.5;" width="40.4459" x="733.7781" y="260.9999"/><text fill="#000000" font-family="sans-serif" font-size="14" lengthAdjust="spacing" textLength="26.4459" x="740.7781" y="281.0059">Cart</text><path d="M316,269.0999 L316,294.0999 L587,294.0999 L587,279.0999 L577,269.0999 L316,269.0999 " fill="#FEFFDD" style="stroke:#181818;stroke-width:0.5;"/><path d="M577,269.0999 L577,279.0999 L587,279.0999 L577,269.0999 " fill="#FEFFDD" style="stroke:#181818;stroke-width:0.5;"/><text fill="#000000" font-family="sans-serif" font-size="13" lengthAdjust="spacing" textLength="250.7052" x="322" y="286.1769">Caso de uso de la primera selecci&#243;n de CD</text><line style="stroke:#181818;stroke-width:1.0;" x1="594.0499" x2="604.0499" y1="324.3998" y2="320.3998"/><line style="stroke:#181818;stroke-width:1.0;" x1="594.0499" x2="604.0499" y1="324.3998" y2="328.3998"/><line style="stroke:#181818;stroke-width:1.0;stroke-dasharray:2.0,2.0;" x1="593.0499" x2="753.001" y1="324.3998" y2="324.3998"/><text fill="#000000" font-family="sans-serif" font-size="13" font-weight="bold" lengthAdjust="spacing" textLength="7.228" x="610.0499" y="318.8768">6</text><text fill="#000000" font-family="sans-serif" font-size="13" lengthAdjust="spacing" textLength="21.671" x="621.2779" y="318.8768">cart</text><line style="stroke:#181818;stroke-width:1.0;" x1="676.861" x2="666.861" y1="353.9999" y2="349.9999"/><line style="stroke:#181818;stroke-width:1.0;" x1="676.861" x2="666.861" y1="353.9999" y2="357.9999"/><line style="stroke:#181818;stroke-width:1.0;stroke-dasharray:2.0,2.0;" x1="593.0499" x2="677.861" y1="353.9999" y2="353.9999"/><text fill="#000000" font-family="sans-serif" font-size="13" font-weight="bold" lengthAdjust="spacing" textLength="7.228" x="600.0499" y="348.4769">7</text><text fill="#000000" font-family="sans-serif" font-size="13" lengthAdjust="spacing" textLength="50.5831" x="611.2779" y="348.4769">&#171;create&#187;</text><rect fill="#99FF99" height="30.7999" rx="2.5" ry="2.5" style="stroke:#181818;stroke-width:0.5;" width="34.2159" x="678.861" y="332.3998"/><text fill="#000000" font-family="sans-serif" font-size="14" lengthAdjust="spacing" textLength="20.2159" x="685.861" y="352.4058">CD</text><line style="stroke:#181818;stroke-width:1.0;" x1="594.0499" x2="604.0499" y1="395.7998" y2="391.7998"/><line style="stroke:#181818;stroke-width:1.0;" x1="594.0499" x2="604.0499" y1="395.7998" y2="399.7998"/><line style="stroke:#181818;stroke-width:1.0;stroke-dasharray:2.0,2.0;" x1="593.0499" x2="694.9689" y1="395.7998" y2="395.7998"/><text fill="#000000" font-family="sans-serif" font-size="13" font-weight="bold" lengthAdjust="spacing" textLength="7.228" x="610.0499" y="390.2768">8</text><text fill="#000000" font-family="sans-serif" font-size="13" lengthAdjust="spacing" textLength="13.728" x="621.2779" y="390.2768">cd</text><polygon fill="#181818" points="742.001,421.3998,752.001,425.3998,742.001,429.3998,746.001,425.3998" style="stroke:#181818;stroke-width:1.0;"/><line style="stroke:#181818;stroke-width:1.0;" x1="593.0499" x2="748.001" y1="425.3998" y2="425.3998"/><text fill="#000000" font-family="sans-serif" font-size="13" font-weight="bold" lengthAdjust="spacing" textLength="7.228" x="600.0499" y="419.8768">9</text><text fill="#000000" font-family="sans-serif" font-size="13" lengthAdjust="spacing" textLength="125.7231" x="611.2779" y="419.8768">addItem(cd, cantidad)</text><polygon fill="#181818" points="482.1247,450.9998,472.1247,454.9998,482.1247,458.9998,478.1247,454.9998" style="stroke:#181818;stroke-width:1.0;"/><line style="stroke:#181818;stroke-width:1.0;" x1="476.1247" x2="592.0499" y1="454.9998" y2="454.9998"/><text fill="#000000" font-family="sans-serif" font-size="13" font-weight="bold" lengthAdjust="spacing" textLength="14.456" x="488.1247" y="449.4768">10</text><text fill="#000000" font-family="sans-serif" font-size="13" lengthAdjust="spacing" textLength="79.4691" x="506.5808" y="449.4768">changeView()</text><polygon fill="#181818" points="346.4846,480.5998,336.4846,484.5998,346.4846,488.5998,342.4846,484.5998" style="stroke:#181818;stroke-width:1.0;"/><line style="stroke:#181818;stroke-width:1.0;stroke-dasharray:2.0,2.0;" x1="340.4846" x2="470.1247" y1="484.5998" y2="484.5998"/><text fill="#000000" font-family="sans-serif" font-size="13" font-weight="bold" lengthAdjust="spacing" textLength="14.456" x="352.4846" y="479.0768">11</text><text fill="#000000" font-family="sans-serif" font-size="13" lengthAdjust="spacing" textLength="93.1841" x="370.9407" y="479.0768">Cambiar la vista</text><polygon fill="#181818" points="43.1149,510.1998,33.1149,514.1998,43.1149,518.1998,39.1149,514.1998" style="stroke:#181818;stroke-width:1.0;"/><line style="stroke:#181818;stroke-width:1.0;stroke-dasharray:2.0,2.0;" x1="37.1149" x2="334.4846" y1="514.1998" y2="514.1998"/><text fill="#000000" font-family="sans-serif" font-size="13" font-weight="bold" lengthAdjust="spacing" textLength="14.456" x="49.1149" y="508.6768">12</text><text fill="#000000" font-family="sans-serif" font-size="13" lengthAdjust="spacing" textLength="179.1662" x="67.5709" y="508.6768">Muestra el carrito de la compra</text><!--SRC=[ZLD1JYCn4Bpx5Iqu42IoESy8vP8SbWFIIW5EUsdiJh3aiMVRxG3FsJVi4_WOzimacqb0q3VRLQwkQllYIQIDzMpMElII6lT3XsOMwKyYhsbgB6uO6uL9Wa_D8x5IOiKHhCYHrZPuP6WvcAGbW2476kNjhmkRe1JcFORxc91jK2soM6tRh0DdjzPRiUGDdW56kF66Nc1Sv-jSLJNcBP3PTahW47AlBVStv0FvXHlwX5VqLhaR-kqdaNZhI2uxtgfVz7fLTSGhj_uarnB3f_KXRmbVrdbLdVHPzBxBKqEmC9tE-m3hWwcK5bxpCBnOWqRr0MVWuBS6DEOk5Bt9fTg5aC__Env33f8uGZ49MzhI0DHCADGXHgJflAVLS7tTO-PpvKE6EbhdtGN6RgmfxgRRics84M9lwksVBmUBfSgAYNqsboLsSijJiUL8QaSo7rZfhDu8DHDjhlQX7PlUHwUVq6_emTBpONR3NUKH5ZVDeyrV8zlOsYYezk-pu8R9rN2RA4gssFsRqvUjtW40]--></g></svg>