<svg xmlns="http://www.w3.org/2000/svg" xmlns:xlink="http://www.w3.org/1999/xlink" contentStyleType="text/css" height="596px" preserveAspectRatio="none" style="width:658px;height:596px;background:#FFFFFF;" version="1.1" viewBox="0 0 658 596" width="658px" zoomAndPan="magnify"><title>Seleccionar producto del cat&#225;logo</title><defs/><g><text fill="#000000" font-family="sans-serif" font-size="14" font-weight="bold" lengthAdjust="spacing" textLength="228.7311" x="213.7839" y="28.0059">Seleccionar producto del cat&#225;logo</text><line style="stroke:#181818;stroke-width:0.5;stroke-dasharray:5.0,5.0;" x1="32" x2="32" y1="119.5999" y2="515.5998"/><line style="stroke:#181818;stroke-width:0.5;stroke-dasharray:5.0,5.0;" x1="215.2812" x2="215.2812" y1="119.5999" y2="515.5998"/><line style="stroke:#181818;stroke-width:0.5;stroke-dasharray:5.0,5.0;" x1="335.0789" x2="335.0789" y1="119.5999" y2="515.5998"/><line style="stroke:#181818;stroke-width:0.5;stroke-dasharray:5.0,5.0;" x1="470.5639" x2="470.5639" y1="119.5999" y2="515.5998"/><line style="stroke:#181818;stroke-width:0.5;stroke-dasharray:5.0,5.0;" x1="575.7139" x2="575.7139" y1="333.6998" y2="515.5998"/><line style="stroke:#181818;stroke-width:0.5;stroke-dasharray:5.0,5.0;" x1="631.853" x2="631.853" y1="262.2999" y2="515.5998"/><text fill="#000000" font-family="sans-serif" font-size="14" lengthAdjust="spacing" textLength="48.2298" x="5" y="115.8059">Usuario</text><ellipse cx="32.1149" cy="51.2999" fill="#E2E2F0" rx="8" ry="8" style="stroke:#181818;stroke-width:0.5;"/><path d="M32.1149,59.2999 L32.1149,86.2999 M19.1149,67.2999 L45.1149,67.2999 M32.1149,86.2999 L19.1149,101.2999 M32.1149,86.2999 L45.1149,101.2999 " fill="none" style="stroke:#181818;stroke-width:0.5;"/><text fill="#000000" font-family="sans-serif" font-size="14" lengthAdjust="spacing" textLength="48.2298" x="5" y="527.6058">Usuario</text><ellipse cx="32.1149" cy="539.8998" fill="#E2E2F0" rx="8" ry="8" style="stroke:#181818;stroke-width:0.5;"/><path d="M32.1149,547.8998 L32.1149,574.8998 M19.1149,555.8998 L45.1149,555.8998 M32.1149,574.8998 L19.1149,589.8998 M32.1149,574.8998 L45.1149,589.8998 " fill="none" style="stroke:#181818;stroke-width:0.5;"/><rect fill="#FFFF99" height="30.7999" rx="2.5" ry="2.5" style="stroke:#181818;stroke-width:0.5;" width="77.7977" x="177.2812" y="87.7999"/><text fill="#000000" font-family="sans-serif" font-size="14" lengthAdjust="spacing" textLength="63.7977" x="184.2812" y="107.8059">Minitienda</text><rect fill="#FFFF99" height="30.7999" rx="2.5" ry="2.5" style="stroke:#181818;stroke-width:0.5;" width="77.7977" x="177.2812" y="514.5998"/><text fill="#000000" font-family="sans-serif" font-size="14" lengthAdjust="spacing" textLength="63.7977" x="184.2812" y="534.6058">Minitienda</text><rect fill="#FFFF99" height="30.7999" rx="2.5" ry="2.5" style="stroke:#181818;stroke-width:0.5;" width="140.8115" x="265.0789" y="87.7999"/><text fill="#000000" font-family="sans-serif" font-size="14" lengthAdjust="spacing" textLength="126.8115" x="272.0789" y="107.8059">Carrito de la compra</text><rect fill="#FFFF99" height="30.7999" rx="2.5" ry="2.5" style="stroke:#181818;stroke-width:0.5;" width="140.8115" x="265.0789" y="514.5998"/><text fill="#000000" font-family="sans-serif" font-size="14" lengthAdjust="spacing" textLength="126.8115" x="272.0789" y="534.6058">Carrito de la compra</text><rect fill="#FF9999" height="47.5999" rx="2.5" ry="2.5" style="stroke:#181818;stroke-width:0.5;" width="73.1218" x="434.5639" y="71"/><text fill="#000000" font-family="sans-serif" font-size="14" lengthAdjust="spacing" textLength="59.1218" x="441.5639" y="91.0059">MiniStore</text><text fill="#000000" font-family="sans-serif" font-size="14" lengthAdjust="spacing" textLength="50.5538" x="445.8478" y="107.8059">(servlet)</text><rect fill="#FF9999" height="47.5999" rx="2.5" ry="2.5" style="stroke:#181818;stroke-width:0.5;" width="73.1218" x="434.5639" y="514.5998"/><text fill="#000000" font-family="sans-serif" font-size="14" lengthAdjust="spacing" textLength="59.1218" x="441.5639" y="534.6058">MiniStore</text><text fill="#000000" font-family="sans-serif" font-size="14" lengthAdjust="spacing" textLength="50.5538" x="445.8478" y="551.4057">(servlet)</text><rect fill="#99FF99" height="30.7999" rx="2.5" ry="2.5" style="stroke:#181818;stroke-width:0.5;" width="34.2159" x="558.7139" y="514.5998"/><text fill="#000000" font-family="sans-serif" font-size="14" lengthAdjust="spacing" textLength="20.2159" x="565.7139" y="534.6058">CD</text><rect fill="#99FF99" height="30.7999" rx="2.5" ry="2.5" style="stroke:#181818;stroke-width:0.5;" width="40.4459" x="611.853" y="514.5998"/><text fill="#000000" font-family="sans-serif" font-size="14" lengthAdjust="spacing" textLength="26.4459" x="618.853" y="534.6058">Cart</text><polygon fill="#181818" points="204.18,147.1999,214.18,151.1999,204.18,155.1999,208.18,151.1999" style="stroke:#181818;stroke-width:1.0;"/><line style="stroke:#181818;stroke-width:1.0;stroke-dasharray:2.0,2.0;" x1="32.1149" x2="210.18" y1="151.1999" y2="151.1999"/><text fill="#000000" font-family="sans-serif" font-size="13" font-weight="bold" lengthAdjust="spacing" textLength="7.228" x="39.1149" y="145.6769">1</text><text fill="#000000" font-family="sans-serif" font-size="13" lengthAdjust="spacing" textLength="148.8371" x="50.3429" y="145.6769">Selecciona CD y cantidad</text><polygon fill="#181818" points="459.1247,176.7999,469.1247,180.7999,459.1247,184.7999,463.1247,180.7999" style="stroke:#181818;stroke-width:1.0;"/><line style="stroke:#181818;stroke-width:1.0;" x1="216.18" x2="465.1247" y1="180.7999" y2="180.7999"/><text fill="#000000" font-family="sans-serif" font-size="13" font-weight="bold" lengthAdjust="spacing" textLength="7.228" x="223.18" y="175.2769">2</text><text fill="#000000" font-family="sans-serif" font-size="13" lengthAdjust="spacing" textLength="70.0701" x="234.4081" y="175.2769">addToCart()</text><line style="stroke:#181818;stroke-width:1.0;" x1="471.1247" x2="513.1247" y1="210.3999" y2="210.3999"/><line style="stroke:#181818;stroke-width:1.0;" x1="513.1247" x2="513.1247" y1="210.3999" y2="223.3999"/><line style="stroke:#181818;stroke-width:1.0;" x1="472.1247" x2="513.1247" y1="223.3999" y2="223.3999"/><polygon fill="#181818" points="482.1247,219.3999,472.1247,223.3999,482.1247,227.3999,478.1247,223.3999" style="stroke:#181818;stroke-width:1.0;"/><text fill="#000000" font-family="sans-serif" font-size="13" font-weight="bold" lengthAdjust="spacing" textLength="7.228" x="478.1247" y="204.8769">3</text><text fill="#000000" font-family="sans-serif" font-size="13" lengthAdjust="spacing" textLength="76.5571" x="489.3528" y="204.8769">retrieveCart()</text><line style="stroke:#181818;stroke-width:1.0;" x1="609.853" x2="599.853" y1="252.9999" y2="248.9999"/><line style="stroke:#181818;stroke-width:1.0;" x1="609.853" x2="599.853" y1="252.9999" y2="256.9999"/><line style="stroke:#181818;stroke-width:1.0;stroke-dasharray:2.0,2.0;" x1="471.1247" x2="610.853" y1="252.9999" y2="252.9999"/><text fill="#000000" font-family="sans-serif" font-size="13" font-weight="bold" lengthAdjust="spacing" textLength="7.228" x="478.1247" y="247.4769">4</text><text fill="#000000" font-family="sans-serif" font-size="13" lengthAdjust="spacing" textLength="50.5831" x="489.3528" y="247.4769">&#171;create&#187;</text><rect fill="#99FF99" height="30.7999" rx="2.5" ry="2.5" style="stroke:#181818;stroke-width:0.5;" width="40.4459" x="611.853" y="231.3999"/><text fill="#000000" font-family="sans-serif" font-size="14" lengthAdjust="spacing" textLength="26.4459" x="618.853" y="251.4058">Cart</text><path d="M194,239.4999 L194,264.4999 L465,264.4999 L465,249.4999 L455,239.4999 L194,239.4999 " fill="#FEFFDD" style="stroke:#181818;stroke-width:0.5;"/><path d="M455,239.4999 L455,249.4999 L465,249.4999 L455,239.4999 " fill="#FEFFDD" style="stroke:#181818;stroke-width:0.5;"/><text fill="#000000" font-family="sans-serif" font-size="13" lengthAdjust="spacing" textLength="250.7052" x="200" y="256.5769">Caso de uso de la primera selecci&#243;n de CD</text><line style="stroke:#181818;stroke-width:1.0;" x1="472.1247" x2="482.1247" y1="294.7998" y2="290.7998"/><line style="stroke:#181818;stroke-width:1.0;" x1="472.1247" x2="482.1247" y1="294.7998" y2="298.7998"/><line style="stroke:#181818;stroke-width:1.0;stroke-dasharray:2.0,2.0;" x1="471.1247" x2="631.0759" y1="294.7998" y2="294.7998"/><text fill="#000000" font-family="sans-serif" font-size="13" font-weight="bold" lengthAdjust="spacing" textLength="7.228" x="488.1247" y="289.2768">5</text><text fill="#000000" font-family="sans-serif" font-size="13" lengthAdjust="spacing" textLength="21.671" x="499.3528" y="289.2768">cart</text><line style="stroke:#181818;stroke-width:1.0;" x1="556.7139" x2="546.7139" y1="324.3998" y2="320.3998"/><line style="stroke:#181818;stroke-width:1.0;" x1="556.7139" x2="546.7139" y1="324.3998" y2="328.3998"/><line style="stroke:#181818;stroke-width:1.0;stroke-dasharray:2.0,2.0;" x1="471.1247" x2="557.7139" y1="324.3998" y2="324.3998"/><text fill="#000000" font-family="sans-serif" font-size="13" font-weight="bold" lengthAdjust="spacing" textLength="7.228" x="478.1247" y="318.8768">6</text><text fill="#000000" font-family="sans-serif" font-size="13" lengthAdjust="spacing" textLength="50.5831" x="489.3528" y="318.8768">&#171;create&#187;</text><rect fill="#99FF99" height="30.7999" rx="2.5" ry="2.5" style="stroke:#181818;stroke-width:0.5;" width="34.2159" x="558.7139" y="302.7998"/><text fill="#000000" font-family="sans-serif" font-size="14" lengthAdjust="spacing" textLength="20.2159" x="565.7139" y="322.8058">CD</text><line style="stroke:#181818;stroke-width:1.0;" x1="472.1247" x2="482.1247" y1="366.1998" y2="362.1998"/><line style="stroke:#181818;stroke-width:1.0;" x1="472.1247" x2="482.1247" y1="366.1998" y2="370.1998"/><line style="stroke:#181818;stroke-width:1.0;stroke-dasharray:2.0,2.0;" x1="471.1247" x2="574.8219" y1="366.1998" y2="366.1998"/><text fill="#000000" font-family="sans-serif" font-size="13" font-weight="bold" lengthAdjust="spacing" textLength="7.228" x="488.1247" y="360.6768">7</text><text fill="#000000" font-family="sans-serif" font-size="13" lengthAdjust="spacing" textLength="13.728" x="499.3528" y="360.6768">cd</text><polygon fill="#181818" points="620.0759,391.7998,630.0759,395.7998,620.0759,399.7998,624.0759,395.7998" style="stroke:#181818;stroke-width:1.0;"/><line style="stroke:#181818;stroke-width:1.0;" x1="471.1247" x2="626.0759" y1="395.7998" y2="395.7998"/><text fill="#000000" font-family="sans-serif" font-size="13" font-weight="bold" lengthAdjust="spacing" textLength="7.228" x="478.1247" y="390.2768">8</text><text fill="#000000" font-family="sans-serif" font-size="13" lengthAdjust="spacing" textLength="125.7231" x="489.3528" y="390.2768">addItem(cd, cantidad)</text><line style="stroke:#181818;stroke-width:1.0;" x1="471.1247" x2="513.1247" y1="425.3998" y2="425.3998"/><line style="stroke:#181818;stroke-width:1.0;" x1="513.1247" x2="513.1247" y1="425.3998" y2="438.3998"/><line style="stroke:#181818;stroke-width:1.0;" x1="472.1247" x2="513.1247" y1="438.3998" y2="438.3998"/><polygon fill="#181818" points="482.1247,434.3998,472.1247,438.3998,482.1247,442.3998,478.1247,438.3998" style="stroke:#181818;stroke-width:1.0;"/><text fill="#000000" font-family="sans-serif" font-size="13" font-weight="bold" lengthAdjust="spacing" textLength="7.228" x="478.1247" y="419.8768">9</text><text fill="#000000" font-family="sans-serif" font-size="13" lengthAdjust="spacing" textLength="79.4691" x="489.3528" y="419.8768">changeView()</text><polygon fill="#181818" points="346.4846,463.9998,336.4846,467.9998,346.4846,471.9998,342.4846,467.9998" style="stroke:#181818;stroke-width:1.0;"/><line style="stroke:#181818;stroke-width:1.0;stroke-dasharray:2.0,2.0;" x1="340.4846" x2="470.1247" y1="467.9998" y2="467.9998"/><text fill="#000000" font-family="sans-serif" font-size="13" font-weight="bold" lengthAdjust="spacing" textLength="14.456" x="352.4846" y="462.4768">10</text><text fill="#000000" font-family="sans-serif" font-size="13" lengthAdjust="spacing" textLength="93.1841" x="370.9407" y="462.4768">Cambiar la vista</text><polygon fill="#181818" points="43.1149,493.5998,33.1149,497.5998,43.1149,501.5998,39.1149,497.5998" style="stroke:#181818;stroke-width:1.0;"/><line style="stroke:#181818;stroke-width:1.0;stroke-dasharray:2.0,2.0;" x1="37.1149" x2="334.4846" y1="497.5998" y2="497.5998"/><text fill="#000000" font-family="sans-serif" font-size="13" font-weight="bold" lengthAdjust="spacing" textLength="14.456" x="49.1149" y="492.0768">11</text><text fill="#000000" font-family="sans-serif" font-size="13" lengthAdjust="spacing" textLength="179.1662" x="67.5709" y="492.0768">Muestra el carrito de la compra</text><!--SRC=[ZLBBJYD13BptLrZai44Yv3mZD9VamW49AGkdlPXk4rhgwHxSxYpxENp3VW8_jfv7s8I7e6zZLxdADVxn8DBbUhdi0aOfRJYtgLrcUYmKBIsSnorZQx18YgMz8pP6l0I23GMorgU831qdLwmaS1J0ehmyXxHDng3M66voGVR9TCZYhUzK1qwkVFJYAJey0Snm6HqzmV6RtUkhgcFU2fdze0G1GRrsF4xGXbpZbZxXzNeRTKE_uZmJxmB9wS3RZ1-ZNbMzuQtMyEMRLTKxlTxDTtbc2WWMYsOCeZv8jxVmHqEDuXqwCmQbmCbt3UZSpzJhpK_DVfd3FfEmfnrD4Ck4GeF1__15qmoL6YukHa3Jc9WK5-XUgolCG-GbxvFlsBV427aq-l8tzetLsgXSuQY6TVvUQ_r6QNsaisUuG_kZ6ztjKgYTMtVs6i77Mze7Z5kwzVJxC8PfK7yN_HBjdTThLVSxdmNDwydqkEadr71LA8jkDfpo-sCpvXy0]--></g></svg>