<svg xmlns="http://www.w3.org/2000/svg" xmlns:xlink="http://www.w3.org/1999/xlink" contentStyleType="text/css" height="546.6px" preserveAspectRatio="none" style="width:664px;height:546px;background:#FFFFFF;" version="1.1" viewBox="0 0 664 546" width="664.8px" zoomAndPan="magnify"><title>Diagrama de clases del modelo</title><defs/><g><text fill="#000000" font-family="sans-serif" font-size="8.4" font-weight="bold" lengthAdjust="spacing" textLength="125.1175" x="265.7622" y="13.8036">Diagrama de clases del modelo</text><!--class CD--><g id="elem_CD"><rect codeLine="4" fill="#F1F1F1" height="139.6795" id="CD" rx="1.5" ry="1.5" style="stroke:#181818;stroke-width:0.3;" width="102.4388" x="4.2" y="297.24"/><ellipse cx="46.8046" cy="306.84" fill="#ADD1B2" rx="6.6" ry="6.6" style="stroke:#181818;stroke-width:0.6;"/><path d="M43.8046,307.5337 C43.8046,309.0337 45.089,310.1212 46.8421,310.1212 C47.5828,310.1212 48.2859,309.9431 48.7359,309.6337 C49.1015,309.3806 49.2984,309.1275 49.2984,308.8837 C49.2984,308.6025 49.0453,308.3587 48.7453,308.3587 C48.6046,308.3587 48.4734,308.4056 48.3515,308.5275 C48.089,308.79 48.089,308.79 47.9859,308.8462 C47.714,308.9868 47.3296,309.0712 46.8703,309.0712 C45.6703,309.0712 44.9015,308.4618 44.9015,307.515 L44.9015,306.8868 C44.9015,305.865 45.6328,305.1431 46.6546,305.1431 C47.0015,305.1431 47.3484,305.2275 47.6296,305.3775 C47.9109,305.5368 48.014,305.6493 48.0515,305.865 C48.1265,306.2681 48.2765,306.4181 48.5953,306.4181 C48.764,306.4181 48.9328,306.3337 49.0453,306.2025 C49.1203,306.0993 49.1484,305.9962 49.1484,305.7337 L49.1484,304.9181 C49.1484,304.665 49.139,304.5806 49.064,304.4775 C48.9609,304.3275 48.7921,304.2337 48.5953,304.2337 C48.4078,304.2337 48.2859,304.2993 48.1546,304.4587 C47.4515,304.1587 47.189,304.0931 46.6171,304.0931 C45.014,304.0931 43.8046,305.3025 43.8046,306.8775 L43.8046,307.5337 Z " fill="#000000"/><text fill="#000000" font-family="sans-serif" font-size="8.4" lengthAdjust="spacing" textLength="12.1295" x="59.1046" y="309.6035">CD</text><line style="stroke:#181818;stroke-width:0.3;" x1="4.8" x2="106.0388" y1="316.44" y2="316.44"/><rect fill="none" height="3.6" style="stroke:#C82930;stroke-width:0.6;" width="3.6" x="9" y="322.9799"/><text fill="#000000" font-family="sans-serif" font-size="8.4" lengthAdjust="spacing" textLength="45.2842" x="16.2" y="326.6435">String name</text><rect fill="none" height="3.6" style="stroke:#C82930;stroke-width:0.6;" width="3.6" x="9" y="333.0599"/><text fill="#000000" font-family="sans-serif" font-size="8.4" lengthAdjust="spacing" textLength="48.0898" x="16.2" y="336.7235">String author</text><rect fill="none" height="3.6" style="stroke:#C82930;stroke-width:0.6;" width="3.6" x="9" y="343.1398"/><text fill="#000000" font-family="sans-serif" font-size="8.4" lengthAdjust="spacing" textLength="51.8194" x="16.2" y="346.8034">String country</text><rect fill="none" height="3.6" style="stroke:#C82930;stroke-width:0.6;" width="3.6" x="9" y="353.2198"/><text fill="#000000" font-family="sans-serif" font-size="8.4" lengthAdjust="spacing" textLength="45.7546" x="16.2" y="356.8834">double price</text><line style="stroke:#181818;stroke-width:0.3;" x1="4.8" x2="106.0388" y1="361.5598" y2="361.5598"/><ellipse cx="10.8" cy="369.8998" fill="#84BE84" rx="1.8" ry="1.8" style="stroke:#038048;stroke-width:0.6;"/><text fill="#000000" font-family="sans-serif" font-size="8.4" lengthAdjust="spacing" textLength="63.9489" x="16.2" y="371.7633">String getName()</text><ellipse cx="10.8" cy="379.9797" fill="#84BE84" rx="1.8" ry="1.8" style="stroke:#038048;stroke-width:0.6;"/><text fill="#000000" font-family="sans-serif" font-size="8.4" lengthAdjust="spacing" textLength="66.2925" x="16.2" y="381.8433">String getAuthor()</text><ellipse cx="10.8" cy="390.0597" fill="#84BE84" rx="1.8" ry="1.8" style="stroke:#038048;stroke-width:0.6;"/><text fill="#000000" font-family="sans-serif" font-size="8.4" lengthAdjust="spacing" textLength="70.9545" x="16.2" y="391.9233">String getCountry()</text><ellipse cx="10.8" cy="400.1396" fill="#84BE84" rx="1.8" ry="1.8" style="stroke:#038048;stroke-width:0.6;"/><text fill="#000000" font-family="sans-serif" font-size="8.4" lengthAdjust="spacing" textLength="63.9573" x="16.2" y="402.0032">double getPrice()</text><ellipse cx="10.8" cy="410.2196" fill="#84BE84" rx="1.8" ry="1.8" style="stroke:#038048;stroke-width:0.6;"/><text fill="#000000" font-family="sans-serif" font-size="8.4" lengthAdjust="spacing" textLength="58.8166" x="16.2" y="412.0832">String toString()</text><ellipse cx="10.8" cy="420.2995" fill="#84BE84" rx="1.8" ry="1.8" style="stroke:#038048;stroke-width:0.6;"/><text fill="#000000" font-family="sans-serif" font-size="8.4" lengthAdjust="spacing" textLength="86.8388" x="16.2" y="422.1631">boolean equals(Object)</text><ellipse cx="10.8" cy="430.3795" fill="#84BE84" rx="1.8" ry="1.8" style="stroke:#038048;stroke-width:0.6;"/><text fill="#000000" font-family="sans-serif" font-size="8.4" lengthAdjust="spacing" textLength="55.087" x="16.2" y="432.2431">int hashCode()</text></g><!--class DataBase--><g id="elem_DataBase"><rect codeLine="19" fill="#F1F1F1" height="156.3595" id="DataBase" rx="1.5" ry="1.5" style="stroke:#181818;stroke-width:0.3;" width="155.1906" x="265.224" y="94.68"/><ellipse cx="321.8272" cy="107.58" fill="#ADD1B2" rx="6.6" ry="6.6" style="stroke:#181818;stroke-width:0.6;"/><path d="M318.8272,108.2737 C318.8272,109.7737 320.1116,110.8612 321.8647,110.8612 C322.6053,110.8612 323.3084,110.6831 323.7584,110.3737 C324.1241,110.1206 324.3209,109.8675 324.3209,109.6237 C324.3209,109.3425 324.0678,109.0987 323.7678,109.0987 C323.6272,109.0987 323.4959,109.1456 323.3741,109.2675 C323.1116,109.53 323.1116,109.53 323.0084,109.5862 C322.7366,109.7268 322.3522,109.8112 321.8928,109.8112 C320.6928,109.8112 319.9241,109.2018 319.9241,108.255 L319.9241,107.6268 C319.9241,106.605 320.6553,105.8831 321.6772,105.8831 C322.0241,105.8831 322.3709,105.9675 322.6522,106.1175 C322.9334,106.2768 323.0366,106.3893 323.0741,106.605 C323.1491,107.0081 323.2991,107.1581 323.6178,107.1581 C323.7866,107.1581 323.9553,107.0737 324.0678,106.9425 C324.1428,106.8393 324.1709,106.7362 324.1709,106.4737 L324.1709,105.6581 C324.1709,105.405 324.1616,105.3206 324.0866,105.2175 C323.9834,105.0675 323.8147,104.9737 323.6178,104.9737 C323.4303,104.9737 323.3084,105.0393 323.1772,105.1987 C322.4741,104.8987 322.2116,104.8331 321.6397,104.8331 C320.0366,104.8331 318.8272,106.0425 318.8272,107.6175 L318.8272,108.2737 Z " fill="#000000"/><text fill="#000000" font-family="sans-serif" font-size="7.2" font-style="italic" lengthAdjust="spacing" textLength="36.821" x="334.1588" y="105.6">&#171;singleton&#187;</text><text fill="#000000" font-family="sans-serif" font-size="8.4" lengthAdjust="spacing" textLength="36.8842" x="334.1272" y="115.2036">DataBase</text><line style="stroke:#181818;stroke-width:0.3;" x1="265.824" x2="419.8146" y1="120.48" y2="120.48"/><rect fill="none" height="3.6" style="stroke:#C82930;stroke-width:0.6;" width="3.6" x="270.024" y="127.02"/><text fill="#000000" font-family="sans-serif" font-size="8.4" lengthAdjust="spacing" text-decoration="underline" textLength="77.0277" x="277.224" y="130.6835">DataBase currentDB</text><rect fill="none" height="3.6" style="stroke:#C82930;stroke-width:0.6;" width="3.6" x="270.024" y="137.0999"/><text fill="#000000" font-family="sans-serif" font-size="8.4" lengthAdjust="spacing" text-decoration="underline" textLength="85.4444" x="277.224" y="140.7635">Connection connection</text><rect fill="none" height="3.6" style="stroke:#C82930;stroke-width:0.6;" width="3.6" x="270.024" y="147.1799"/><text fill="#000000" font-family="sans-serif" font-size="8.4" lengthAdjust="spacing" textLength="72.8109" x="277.224" y="150.8435">UserDAO userDAO</text><rect fill="none" height="3.6" style="stroke:#C82930;stroke-width:0.6;" width="3.6" x="270.024" y="157.2598"/><text fill="#000000" font-family="sans-serif" font-size="8.4" lengthAdjust="spacing" textLength="108.7711" x="277.224" y="160.9234">PurchaseDAO purchaseDAO</text><ellipse cx="271.824" cy="169.1398" fill="none" rx="1.8" ry="1.8" style="stroke:#038048;stroke-width:0.6;"/><text fill="#000000" font-family="sans-serif" font-size="8.4" lengthAdjust="spacing" text-decoration="underline" textLength="117.1543" x="277.224" y="171.0034">String CONFIGURATION_FILE</text><line style="stroke:#181818;stroke-width:0.3;" x1="265.824" x2="419.8146" y1="175.6798" y2="175.6798"/><ellipse cx="271.824" cy="184.0197" fill="#84BE84" rx="1.8" ry="1.8" style="stroke:#038048;stroke-width:0.6;"/><text fill="#000000" font-family="sans-serif" font-size="8.4" lengthAdjust="spacing" text-decoration="underline" textLength="96.1628" x="277.224" y="185.8833">DataBase getCurrentDB()</text><ellipse cx="271.824" cy="194.0997" fill="#84BE84" rx="1.8" ry="1.8" style="stroke:#038048;stroke-width:0.6;"/><text fill="#000000" font-family="sans-serif" font-size="8.4" lengthAdjust="spacing" text-decoration="underline" textLength="104.5796" x="277.224" y="195.9633">Connection getConnection()</text><ellipse cx="271.824" cy="204.1797" fill="#84BE84" rx="1.8" ry="1.8" style="stroke:#038048;stroke-width:0.6;"/><text fill="#000000" font-family="sans-serif" font-size="8.4" lengthAdjust="spacing" text-decoration="underline" textLength="82.6137" x="277.224" y="206.0432">void closeCurrentDB()</text><ellipse cx="271.824" cy="214.2596" fill="#84BE84" rx="1.8" ry="1.8" style="stroke:#038048;stroke-width:0.6;"/><text fill="#000000" font-family="sans-serif" font-size="8.4" lengthAdjust="spacing" textLength="86.8052" x="277.224" y="216.1232">void registerUser(User)</text><ellipse cx="271.824" cy="224.3396" fill="#84BE84" rx="1.8" ry="1.8" style="stroke:#038048;stroke-width:0.6;"/><text fill="#000000" font-family="sans-serif" font-size="8.4" lengthAdjust="spacing" textLength="119.9599" x="277.224" y="226.2032">void loginUser(String,Password)</text><ellipse cx="271.824" cy="234.4195" fill="#84BE84" rx="1.8" ry="1.8" style="stroke:#038048;stroke-width:0.6;"/><text fill="#000000" font-family="sans-serif" font-size="8.4" lengthAdjust="spacing" textLength="132.5851" x="277.224" y="236.2831">void addPurchase(String,Purchase)</text><ellipse cx="271.824" cy="244.4995" fill="#84BE84" rx="1.8" ry="1.8" style="stroke:#038048;stroke-width:0.6;"/><text fill="#000000" font-family="sans-serif" font-size="8.4" lengthAdjust="spacing" textLength="139.5906" x="277.224" y="246.3631">List&lt;Purchase&gt; getPurchases(String)</text></g><!--class PurchaseDAO--><g id="elem_PurchaseDAO"><rect codeLine="35" fill="#F1F1F1" height="59.0399" id="PurchaseDAO" rx="1.5" ry="1.5" style="stroke:#181818;stroke-width:0.3;" width="155.1906" x="127.824" y="337.56"/><ellipse cx="176.0272" cy="347.16" fill="#ADD1B2" rx="6.6" ry="6.6" style="stroke:#181818;stroke-width:0.6;"/><path d="M173.0272,347.8537 C173.0272,349.3537 174.3116,350.4412 176.0647,350.4412 C176.8053,350.4412 177.5085,350.2631 177.9585,349.9537 C178.3241,349.7006 178.521,349.4475 178.521,349.2037 C178.521,348.9225 178.2678,348.6787 177.9678,348.6787 C177.8272,348.6787 177.696,348.7256 177.5741,348.8475 C177.3116,349.11 177.3116,349.11 177.2085,349.1662 C176.9366,349.3068 176.5522,349.3912 176.0928,349.3912 C174.8928,349.3912 174.1241,348.7818 174.1241,347.835 L174.1241,347.2068 C174.1241,346.185 174.8553,345.4631 175.8772,345.4631 C176.2241,345.4631 176.571,345.5475 176.8522,345.6975 C177.1335,345.8568 177.2366,345.9693 177.2741,346.185 C177.3491,346.5881 177.4991,346.7381 177.8178,346.7381 C177.9866,346.7381 178.1553,346.6537 178.2678,346.5225 C178.3428,346.4193 178.371,346.3162 178.371,346.0537 L178.371,345.2381 C178.371,344.985 178.3616,344.9006 178.2866,344.7975 C178.1835,344.6475 178.0147,344.5537 177.8178,344.5537 C177.6303,344.5537 177.5085,344.6193 177.3772,344.7787 C176.6741,344.4787 176.4116,344.4131 175.8397,344.4131 C174.2366,344.4131 173.0272,345.6225 173.0272,347.1975 L173.0272,347.8537 Z " fill="#000000"/><text fill="#000000" font-family="sans-serif" font-size="8.4" lengthAdjust="spacing" textLength="53.6842" x="188.3272" y="349.9235">PurchaseDAO</text><line style="stroke:#181818;stroke-width:0.3;" x1="128.424" x2="282.4146" y1="356.76" y2="356.76"/><polygon fill="none" points="134.424,362.6999,132.024,366.2999,136.824,366.2999" style="stroke:#1963A0;stroke-width:0.6;"/><text fill="#000000" font-family="sans-serif" font-size="8.4" lengthAdjust="spacing" textLength="85.4444" x="139.824" y="366.9635">Connection connection</text><line style="stroke:#181818;stroke-width:0.3;" x1="128.424" x2="282.4146" y1="371.6399" y2="371.6399"/><ellipse cx="134.424" cy="379.9799" fill="#84BE84" rx="1.8" ry="1.8" style="stroke:#038048;stroke-width:0.6;"/><text fill="#000000" font-family="sans-serif" font-size="8.4" lengthAdjust="spacing" textLength="108.3092" x="139.824" y="381.8435">void addPurchase(Purchase)</text><ellipse cx="134.424" cy="390.0598" fill="#84BE84" rx="1.8" ry="1.8" style="stroke:#038048;stroke-width:0.6;"/><text fill="#000000" font-family="sans-serif" font-size="8.4" lengthAdjust="spacing" textLength="139.5906" x="139.824" y="391.9234">List&lt;Purchase&gt; getPurchases(String)</text></g><!--class Password--><g id="elem_Password"><rect codeLine="42" fill="#F1F1F1" height="69.1198" id="Password" rx="1.5" ry="1.5" style="stroke:#181818;stroke-width:0.3;" width="141.6499" x="519.192" y="332.52"/><ellipse cx="569.029" cy="342.12" fill="#ADD1B2" rx="6.6" ry="6.6" style="stroke:#181818;stroke-width:0.6;"/><path d="M566.029,342.8137 C566.029,344.3137 567.3134,345.4012 569.0665,345.4012 C569.8071,345.4012 570.5103,345.2231 570.9603,344.9137 C571.3259,344.6606 571.5228,344.4075 571.5228,344.1637 C571.5228,343.8825 571.2696,343.6387 570.9696,343.6387 C570.829,343.6387 570.6978,343.6856 570.5759,343.8075 C570.3134,344.07 570.3134,344.07 570.2103,344.1262 C569.9384,344.2668 569.554,344.3512 569.0946,344.3512 C567.8946,344.3512 567.1259,343.7418 567.1259,342.795 L567.1259,342.1668 C567.1259,341.145 567.8571,340.4231 568.879,340.4231 C569.2259,340.4231 569.5728,340.5075 569.854,340.6575 C570.1353,340.8168 570.2384,340.9293 570.2759,341.145 C570.3509,341.5481 570.5009,341.6981 570.8196,341.6981 C570.9884,341.6981 571.1571,341.6137 571.2696,341.4825 C571.3446,341.3793 571.3728,341.2762 571.3728,341.0137 L571.3728,340.1981 C571.3728,339.945 571.3634,339.8606 571.2884,339.7575 C571.1853,339.6075 571.0165,339.5137 570.8196,339.5137 C570.6321,339.5137 570.5103,339.5793 570.379,339.7387 C569.6759,339.4387 569.4134,339.3731 568.8415,339.3731 C567.2384,339.3731 566.029,340.5825 566.029,342.1575 L566.029,342.8137 Z " fill="#000000"/><text fill="#000000" font-family="sans-serif" font-size="8.4" lengthAdjust="spacing" textLength="36.8758" x="581.329" y="344.8835">Password</text><line style="stroke:#181818;stroke-width:0.3;" x1="519.792" x2="660.2419" y1="351.72" y2="351.72"/><rect fill="none" height="3.6" style="stroke:#C82930;stroke-width:0.6;" width="3.6" x="523.992" y="358.2599"/><text fill="#000000" font-family="sans-serif" font-size="8.4" lengthAdjust="spacing" textLength="62.5713" x="531.192" y="361.9235">Integer256 value</text><line style="stroke:#181818;stroke-width:0.3;" x1="519.792" x2="660.2419" y1="366.5999" y2="366.5999"/><ellipse cx="525.792" cy="374.9399" fill="#84BE84" rx="1.8" ry="1.8" style="stroke:#038048;stroke-width:0.6;"/><text fill="#000000" font-family="sans-serif" font-size="8.4" lengthAdjust="spacing" textLength="126.0499" x="531.192" y="376.8035">boolean compareToSaved(String)</text><ellipse cx="525.792" cy="385.0198" fill="#84BE84" rx="1.8" ry="1.8" style="stroke:#038048;stroke-width:0.6;"/><text fill="#000000" font-family="sans-serif" font-size="8.4" lengthAdjust="spacing" textLength="86.8388" x="531.192" y="386.8834">boolean equals(Object)</text><ellipse cx="525.792" cy="395.0998" fill="#84BE84" rx="1.8" ry="1.8" style="stroke:#038048;stroke-width:0.6;"/><text fill="#000000" font-family="sans-serif" font-size="8.4" lengthAdjust="spacing" textLength="58.8166" x="531.192" y="396.9634">String toString()</text></g><!--class Password$Integer256--><g id="elem_Password$Integer256"><rect codeLine="50" fill="#F1F1F1" height="69.1198" id="Password$Integer256" rx="1.5" ry="1.5" style="stroke:#181818;stroke-width:0.3;" width="102.4388" x="538.8" y="473.52"/><ellipse cx="548.4896" cy="483.12" fill="#ADD1B2" rx="6.6" ry="6.6" style="stroke:#181818;stroke-width:0.6;"/><path d="M545.4896,483.8137 C545.4896,485.3137 546.7739,486.4012 548.5271,486.4012 C549.2677,486.4012 549.9708,486.2231 550.4208,485.9137 C550.7864,485.6606 550.9833,485.4075 550.9833,485.1637 C550.9833,484.8825 550.7302,484.6387 550.4302,484.6387 C550.2896,484.6387 550.1583,484.6856 550.0364,484.8075 C549.7739,485.07 549.7739,485.07 549.6708,485.1262 C549.3989,485.2668 549.0146,485.3512 548.5552,485.3512 C547.3552,485.3512 546.5864,484.7418 546.5864,483.795 L546.5864,483.1668 C546.5864,482.145 547.3177,481.4231 548.3396,481.4231 C548.6864,481.4231 549.0333,481.5075 549.3146,481.6575 C549.5958,481.8168 549.6989,481.9293 549.7364,482.145 C549.8114,482.5481 549.9614,482.6981 550.2802,482.6981 C550.4489,482.6981 550.6177,482.6137 550.7302,482.4825 C550.8052,482.3793 550.8333,482.2762 550.8333,482.0137 L550.8333,481.1981 C550.8333,480.945 550.8239,480.8606 550.7489,480.7575 C550.6458,480.6075 550.4771,480.5137 550.2802,480.5137 C550.0927,480.5137 549.9708,480.5793 549.8396,480.7387 C549.1364,480.4387 548.8739,480.3731 548.3021,480.3731 C546.6989,480.3731 545.4896,481.5825 545.4896,483.1575 L545.4896,483.8137 Z " fill="#000000"/><text fill="#000000" font-family="sans-serif" font-size="8.4" lengthAdjust="spacing" textLength="81.7065" x="557.0428" y="485.8835">Password$Integer256</text><line style="stroke:#181818;stroke-width:0.3;" x1="539.4" x2="640.6388" y1="492.72" y2="492.72"/><rect fill="none" height="3.6" style="stroke:#C82930;stroke-width:0.6;" width="3.6" x="543.6" y="499.2599"/><text fill="#000000" font-family="sans-serif" font-size="8.4" lengthAdjust="spacing" textLength="51.3574" x="550.8" y="502.9235">long[] number</text><line style="stroke:#181818;stroke-width:0.3;" x1="539.4" x2="640.6388" y1="507.5999" y2="507.5999"/><ellipse cx="545.4" cy="515.9399" fill="#84BE84" rx="1.8" ry="1.8" style="stroke:#038048;stroke-width:0.6;"/><text fill="#000000" font-family="sans-serif" font-size="8.4" lengthAdjust="spacing" textLength="68.1489" x="550.8" y="517.8035">void cipher(String)</text><ellipse cx="545.4" cy="526.0198" fill="#84BE84" rx="1.8" ry="1.8" style="stroke:#038048;stroke-width:0.6;"/><text fill="#000000" font-family="sans-serif" font-size="8.4" lengthAdjust="spacing" textLength="86.8388" x="550.8" y="527.8834">boolean equals(Object)</text><ellipse cx="545.4" cy="536.0998" fill="#84BE84" rx="1.8" ry="1.8" style="stroke:#038048;stroke-width:0.6;"/><text fill="#000000" font-family="sans-serif" font-size="8.4" lengthAdjust="spacing" textLength="58.8166" x="550.8" y="537.9634">String toString()</text></g><!--class Cart--><g id="elem_Cart"><rect codeLine="57" fill="#F1F1F1" height="119.5196" id="Cart" rx="1.5" ry="1.5" style="stroke:#181818;stroke-width:0.3;" width="118.3064" x="7.668" y="113.1"/><ellipse cx="56.3374" cy="122.7" fill="#ADD1B2" rx="6.6" ry="6.6" style="stroke:#181818;stroke-width:0.6;"/><path d="M53.3374,123.3937 C53.3374,124.8937 54.6218,125.9812 56.3749,125.9812 C57.1155,125.9812 57.8187,125.8031 58.2687,125.4937 C58.6343,125.2406 58.8312,124.9875 58.8312,124.7437 C58.8312,124.4625 58.578,124.2187 58.278,124.2187 C58.1374,124.2187 58.0062,124.2656 57.8843,124.3875 C57.6218,124.65 57.6218,124.65 57.5187,124.7062 C57.2468,124.8468 56.8624,124.9312 56.403,124.9312 C55.203,124.9312 54.4343,124.3218 54.4343,123.375 L54.4343,122.7468 C54.4343,121.725 55.1655,121.0031 56.1874,121.0031 C56.5343,121.0031 56.8812,121.0875 57.1624,121.2375 C57.4437,121.3968 57.5468,121.5093 57.5843,121.725 C57.6593,122.1281 57.8093,122.2781 58.128,122.2781 C58.2968,122.2781 58.4655,122.1937 58.578,122.0625 C58.653,121.9593 58.6812,121.8562 58.6812,121.5937 L58.6812,120.7781 C58.6812,120.525 58.6718,120.4406 58.5968,120.3375 C58.4937,120.1875 58.3249,120.0937 58.128,120.0937 C57.9405,120.0937 57.8187,120.1593 57.6874,120.3187 C56.9843,120.0187 56.7218,119.9531 56.1499,119.9531 C54.5468,119.9531 53.3374,121.1625 53.3374,122.7375 L53.3374,123.3937 Z " fill="#000000"/><text fill="#000000" font-family="sans-serif" font-size="8.4" lengthAdjust="spacing" textLength="15.8675" x="68.6374" y="125.4635">Cart</text><line style="stroke:#181818;stroke-width:0.3;" x1="8.268" x2="125.3744" y1="132.3" y2="132.3"/><rect fill="none" height="3.6" style="stroke:#C82930;stroke-width:0.6;" width="3.6" x="12.468" y="138.8399"/><text fill="#000000" font-family="sans-serif" font-size="8.4" lengthAdjust="spacing" textLength="102.7064" x="19.668" y="142.5035">HashMap&lt;CD,Integer&gt; cart</text><line style="stroke:#181818;stroke-width:0.3;" x1="8.268" x2="125.3744" y1="147.1799" y2="147.1799"/><ellipse cx="14.268" cy="155.5199" fill="#84BE84" rx="1.8" ry="1.8" style="stroke:#038048;stroke-width:0.6;"/><text fill="#000000" font-family="sans-serif" font-size="8.4" lengthAdjust="spacing" textLength="74.6925" x="19.668" y="157.3835">Set&lt;CD&gt; getItems()</text><ellipse cx="14.268" cy="165.5998" fill="#84BE84" rx="1.8" ry="1.8" style="stroke:#038048;stroke-width:0.6;"/><text fill="#000000" font-family="sans-serif" font-size="8.4" lengthAdjust="spacing" textLength="63.4953" x="19.668" y="167.4634">double getTotal()</text><ellipse cx="14.268" cy="175.6798" fill="#84BE84" rx="1.8" ry="1.8" style="stroke:#038048;stroke-width:0.6;"/><text fill="#000000" font-family="sans-serif" font-size="8.4" lengthAdjust="spacing" textLength="71.8869" x="19.668" y="177.5434">int getQuantity(CD)</text><ellipse cx="14.268" cy="185.7598" fill="#84BE84" rx="1.8" ry="1.8" style="stroke:#038048;stroke-width:0.6;"/><text fill="#000000" font-family="sans-serif" font-size="8.4" lengthAdjust="spacing" textLength="77.0193" x="19.668" y="187.6233">void addItem(CD,int)</text><ellipse cx="14.268" cy="195.8397" fill="#84BE84" rx="1.8" ry="1.8" style="stroke:#038048;stroke-width:0.6;"/><text fill="#000000" font-family="sans-serif" font-size="8.4" lengthAdjust="spacing" textLength="74.6841" x="19.668" y="197.7033">void deleteItem(CD)</text><ellipse cx="14.268" cy="205.9197" fill="#84BE84" rx="1.8" ry="1.8" style="stroke:#038048;stroke-width:0.6;"/><text fill="#000000" font-family="sans-serif" font-size="8.4" lengthAdjust="spacing" textLength="74.2221" x="19.668" y="207.7833">double getCost(CD)</text><ellipse cx="14.268" cy="215.9996" fill="#84BE84" rx="1.8" ry="1.8" style="stroke:#038048;stroke-width:0.6;"/><text fill="#000000" font-family="sans-serif" font-size="8.4" lengthAdjust="spacing" textLength="67.6869" x="19.668" y="217.8632">boolean isEmpty()</text><ellipse cx="14.268" cy="226.0796" fill="#84BE84" rx="1.8" ry="1.8" style="stroke:#038048;stroke-width:0.6;"/><text fill="#000000" font-family="sans-serif" font-size="8.4" lengthAdjust="spacing" textLength="41.5378" x="19.668" y="227.9432">void clear()</text></g><!--class UserDAO--><g id="elem_UserDAO"><rect codeLine="70" fill="#F1F1F1" height="89.2797" id="UserDAO" rx="1.5" ry="1.5" style="stroke:#181818;stroke-width:0.3;" width="194.4016" x="303.816" y="322.44"/><ellipse cx="380.4993" cy="332.04" fill="#ADD1B2" rx="6.6" ry="6.6" style="stroke:#181818;stroke-width:0.6;"/><path d="M377.4993,332.7337 C377.4993,334.2337 378.7837,335.3212 380.5368,335.3212 C381.2774,335.3212 381.9805,335.1431 382.4305,334.8337 C382.7962,334.5806 382.993,334.3275 382.993,334.0837 C382.993,333.8025 382.7399,333.5587 382.4399,333.5587 C382.2993,333.5587 382.168,333.6056 382.0462,333.7275 C381.7837,333.99 381.7837,333.99 381.6805,334.0462 C381.4087,334.1868 381.0243,334.2712 380.5649,334.2712 C379.3649,334.2712 378.5962,333.6618 378.5962,332.715 L378.5962,332.0868 C378.5962,331.065 379.3274,330.3431 380.3493,330.3431 C380.6962,330.3431 381.043,330.4275 381.3243,330.5775 C381.6055,330.7368 381.7087,330.8493 381.7462,331.065 C381.8212,331.4681 381.9712,331.6181 382.2899,331.6181 C382.4587,331.6181 382.6274,331.5337 382.7399,331.4025 C382.8149,331.2993 382.843,331.1962 382.843,330.9337 L382.843,330.1181 C382.843,329.865 382.8337,329.7806 382.7587,329.6775 C382.6555,329.5275 382.4868,329.4337 382.2899,329.4337 C382.1024,329.4337 381.9805,329.4993 381.8493,329.6587 C381.1462,329.3587 380.8837,329.2931 380.3118,329.2931 C378.7087,329.2931 377.4993,330.5025 377.4993,332.0775 L377.4993,332.7337 Z " fill="#000000"/><text fill="#000000" font-family="sans-serif" font-size="8.4" lengthAdjust="spacing" textLength="35.9351" x="392.7993" y="334.8035">UserDAO</text><line style="stroke:#181818;stroke-width:0.3;" x1="304.416" x2="497.6176" y1="341.64" y2="341.64"/><rect fill="none" height="3.6" style="stroke:#C82930;stroke-width:0.6;" width="3.6" x="308.616" y="348.1799"/><text fill="#000000" font-family="sans-serif" font-size="8.4" lengthAdjust="spacing" text-decoration="underline" textLength="117.6163" x="315.816" y="351.8435">int MIN_USERNAME_LENGTH</text><polygon fill="none" points="310.416,357.6599,308.016,361.2599,312.816,361.2599" style="stroke:#1963A0;stroke-width:0.6;"/><text fill="#000000" font-family="sans-serif" font-size="8.4" lengthAdjust="spacing" textLength="85.4444" x="315.816" y="361.9235">Connection connection</text><line style="stroke:#181818;stroke-width:0.3;" x1="304.416" x2="497.6176" y1="366.5999" y2="366.5999"/><ellipse cx="310.416" cy="374.9398" fill="#84BE84" rx="1.8" ry="1.8" style="stroke:#038048;stroke-width:0.6;"/><text fill="#000000" font-family="sans-serif" font-size="8.4" lengthAdjust="spacing" textLength="106.4276" x="315.816" y="376.8034">ArrayList&lt;String&gt; getUsers()</text><ellipse cx="310.416" cy="385.0198" fill="#84BE84" rx="1.8" ry="1.8" style="stroke:#038048;stroke-width:0.6;"/><text fill="#000000" font-family="sans-serif" font-size="8.4" lengthAdjust="spacing" textLength="86.8052" x="315.816" y="386.8834">void registerUser(User)</text><ellipse cx="310.416" cy="395.0998" fill="#84BE84" rx="1.8" ry="1.8" style="stroke:#038048;stroke-width:0.6;"/><text fill="#000000" font-family="sans-serif" font-size="8.4" lengthAdjust="spacing" textLength="119.9599" x="315.816" y="396.9633">void loginUser(String,Password)</text><rect fill="#F24D5C" height="3.6" style="stroke:#C82930;stroke-width:0.6;" width="3.6" x="308.616" y="403.3797"/><text fill="#000000" font-family="sans-serif" font-size="8.4" lengthAdjust="spacing" textLength="178.8016" x="315.816" y="407.0433">PreparedStatement prepareQuery(String,String)</text></g><!--class Purchase--><g id="elem_Purchase"><rect codeLine="80" fill="#F1F1F1" height="109.4396" id="Purchase" rx="1.5" ry="1.5" style="stroke:#181818;stroke-width:0.3;" width="94.4841" x="149.778" y="118.14"/><ellipse cx="176.7293" cy="127.74" fill="#ADD1B2" rx="6.6" ry="6.6" style="stroke:#181818;stroke-width:0.6;"/><path d="M173.7293,128.4337 C173.7293,129.9337 175.0137,131.0212 176.7668,131.0212 C177.5074,131.0212 178.2106,130.8431 178.6606,130.5337 C179.0262,130.2806 179.2231,130.0275 179.2231,129.7837 C179.2231,129.5025 178.9699,129.2587 178.6699,129.2587 C178.5293,129.2587 178.3981,129.3056 178.2762,129.4275 C178.0137,129.69 178.0137,129.69 177.9106,129.7462 C177.6387,129.8868 177.2543,129.9712 176.7949,129.9712 C175.5949,129.9712 174.8262,129.3618 174.8262,128.415 L174.8262,127.7868 C174.8262,126.765 175.5574,126.0431 176.5793,126.0431 C176.9262,126.0431 177.2731,126.1275 177.5543,126.2775 C177.8356,126.4368 177.9387,126.5493 177.9762,126.765 C178.0512,127.1681 178.2012,127.3181 178.5199,127.3181 C178.6887,127.3181 178.8574,127.2337 178.9699,127.1025 C179.0449,126.9993 179.0731,126.8962 179.0731,126.6337 L179.0731,125.8181 C179.0731,125.565 179.0637,125.4806 178.9887,125.3775 C178.8856,125.2275 178.7168,125.1337 178.5199,125.1337 C178.3324,125.1337 178.2106,125.1993 178.0793,125.3587 C177.3762,125.0587 177.1137,124.9931 176.5418,124.9931 C174.9387,124.9931 173.7293,126.2025 173.7293,127.7775 L173.7293,128.4337 Z " fill="#000000"/><text fill="#000000" font-family="sans-serif" font-size="8.4" lengthAdjust="spacing" textLength="35.4815" x="189.0293" y="130.5035">Purchase</text><line style="stroke:#181818;stroke-width:0.3;" x1="150.378" x2="243.6621" y1="137.34" y2="137.34"/><rect fill="none" height="3.6" style="stroke:#C82930;stroke-width:0.6;" width="3.6" x="154.578" y="143.8799"/><text fill="#000000" font-family="sans-serif" font-size="8.4" lengthAdjust="spacing" textLength="45.2842" x="161.778" y="147.5435">String buyer</text><rect fill="none" height="3.6" style="stroke:#C82930;stroke-width:0.6;" width="3.6" x="154.578" y="153.9599"/><text fill="#000000" font-family="sans-serif" font-size="8.4" lengthAdjust="spacing" textLength="60.2194" x="161.778" y="157.6235">Timestamp date</text><rect fill="none" height="3.6" style="stroke:#C82930;stroke-width:0.6;" width="3.6" x="154.578" y="164.0398"/><text fill="#000000" font-family="sans-serif" font-size="8.4" lengthAdjust="spacing" textLength="33.6167" x="161.778" y="167.7034">float cost</text><line style="stroke:#181818;stroke-width:0.3;" x1="150.378" x2="243.6621" y1="172.3798" y2="172.3798"/><ellipse cx="156.378" cy="180.7198" fill="#84BE84" rx="1.8" ry="1.8" style="stroke:#038048;stroke-width:0.6;"/><text fill="#000000" font-family="sans-serif" font-size="8.4" lengthAdjust="spacing" textLength="78.8841" x="161.778" y="182.5834">Timestamp getDate()</text><ellipse cx="156.378" cy="190.7998" fill="#84BE84" rx="1.8" ry="1.8" style="stroke:#038048;stroke-width:0.6;"/><text fill="#000000" font-family="sans-serif" font-size="8.4" lengthAdjust="spacing" textLength="52.7518" x="161.778" y="192.6633">float getCost()</text><ellipse cx="156.378" cy="200.8797" fill="#84BE84" rx="1.8" ry="1.8" style="stroke:#038048;stroke-width:0.6;"/><text fill="#000000" font-family="sans-serif" font-size="8.4" lengthAdjust="spacing" textLength="50.8786" x="161.778" y="202.7433">String buyer()</text><ellipse cx="156.378" cy="210.9597" fill="#84BE84" rx="1.8" ry="1.8" style="stroke:#038048;stroke-width:0.6;"/><text fill="#000000" font-family="sans-serif" font-size="8.4" lengthAdjust="spacing" textLength="65.8137" x="161.778" y="212.8233">Timestamp date()</text><ellipse cx="156.378" cy="221.0396" fill="#84BE84" rx="1.8" ry="1.8" style="stroke:#038048;stroke-width:0.6;"/><text fill="#000000" font-family="sans-serif" font-size="8.4" lengthAdjust="spacing" textLength="39.211" x="161.778" y="222.9032">float cost()</text></g><!--class User--><g id="elem_User"><rect codeLine="92" fill="#F1F1F1" height="109.4396" id="User" rx="1.5" ry="1.5" style="stroke:#181818;stroke-width:0.3;" width="96.3489" x="490.242" y="118.14"/><ellipse cx="527.0003" cy="127.74" fill="#ADD1B2" rx="6.6" ry="6.6" style="stroke:#181818;stroke-width:0.6;"/><path d="M524.0003,128.4337 C524.0003,129.9337 525.2846,131.0212 527.0378,131.0212 C527.7784,131.0212 528.4815,130.8431 528.9315,130.5337 C529.2971,130.2806 529.494,130.0275 529.494,129.7837 C529.494,129.5025 529.2409,129.2587 528.9409,129.2587 C528.8003,129.2587 528.669,129.3056 528.5471,129.4275 C528.2846,129.69 528.2846,129.69 528.1815,129.7462 C527.9096,129.8868 527.5253,129.9712 527.0659,129.9712 C525.8659,129.9712 525.0971,129.3618 525.0971,128.415 L525.0971,127.7868 C525.0971,126.765 525.8284,126.0431 526.8503,126.0431 C527.1971,126.0431 527.544,126.1275 527.8253,126.2775 C528.1065,126.4368 528.2096,126.5493 528.2471,126.765 C528.3221,127.1681 528.4721,127.3181 528.7909,127.3181 C528.9596,127.3181 529.1284,127.2337 529.2409,127.1025 C529.3159,126.9993 529.344,126.8962 529.344,126.6337 L529.344,125.8181 C529.344,125.565 529.3346,125.4806 529.2596,125.3775 C529.1565,125.2275 528.9878,125.1337 528.7909,125.1337 C528.6034,125.1337 528.4815,125.1993 528.3503,125.3587 C527.6471,125.0587 527.3846,124.9931 526.8128,124.9931 C525.2096,124.9931 524.0003,126.2025 524.0003,127.7775 L524.0003,128.4337 Z " fill="#000000"/><text fill="#000000" font-family="sans-serif" font-size="8.4" lengthAdjust="spacing" textLength="17.7323" x="539.3003" y="130.5035">User</text><line style="stroke:#181818;stroke-width:0.3;" x1="490.842" x2="585.9909" y1="137.34" y2="137.34"/><rect fill="none" height="3.6" style="stroke:#C82930;stroke-width:0.6;" width="3.6" x="495.042" y="143.8799"/><text fill="#000000" font-family="sans-serif" font-size="8.4" lengthAdjust="spacing" textLength="61.6221" x="502.242" y="147.5435">String username</text><rect fill="none" height="3.6" style="stroke:#C82930;stroke-width:0.6;" width="3.6" x="495.042" y="153.9599"/><text fill="#000000" font-family="sans-serif" font-size="8.4" lengthAdjust="spacing" textLength="75.1545" x="502.242" y="157.6235">Password password</text><rect fill="none" height="3.6" style="stroke:#C82930;stroke-width:0.6;" width="3.6" x="495.042" y="164.0398"/><text fill="#000000" font-family="sans-serif" font-size="8.4" lengthAdjust="spacing" textLength="59.287" x="502.242" y="167.7034">String cardType</text><rect fill="none" height="3.6" style="stroke:#C82930;stroke-width:0.6;" width="3.6" x="495.042" y="174.1198"/><text fill="#000000" font-family="sans-serif" font-size="8.4" lengthAdjust="spacing" textLength="70.4841" x="502.242" y="177.7834">String cardNumber</text><line style="stroke:#181818;stroke-width:0.3;" x1="490.842" x2="585.9909" y1="182.4598" y2="182.4598"/><ellipse cx="496.842" cy="190.7998" fill="#84BE84" rx="1.8" ry="1.8" style="stroke:#038048;stroke-width:0.6;"/><text fill="#000000" font-family="sans-serif" font-size="8.4" lengthAdjust="spacing" textLength="76.0785" x="502.242" y="192.6633">String cardNumber()</text><ellipse cx="496.842" cy="200.8797" fill="#84BE84" rx="1.8" ry="1.8" style="stroke:#038048;stroke-width:0.6;"/><text fill="#000000" font-family="sans-serif" font-size="8.4" lengthAdjust="spacing" textLength="67.2165" x="502.242" y="202.7433">String username()</text><ellipse cx="496.842" cy="210.9597" fill="#84BE84" rx="1.8" ry="1.8" style="stroke:#038048;stroke-width:0.6;"/><text fill="#000000" font-family="sans-serif" font-size="8.4" lengthAdjust="spacing" textLength="80.7489" x="502.242" y="212.8233">Password password()</text><ellipse cx="496.842" cy="221.0396" fill="#84BE84" rx="1.8" ry="1.8" style="stroke:#038048;stroke-width:0.6;"/><text fill="#000000" font-family="sans-serif" font-size="8.4" lengthAdjust="spacing" textLength="64.8813" x="502.242" y="222.9032">String cardType()</text></g><!--entity Servlet--><g id="elem_Servlet"><ellipse cx="203.022" cy="31.08" fill="#F1F1F1" rx="4.8" ry="4.8" style="stroke:#181818;stroke-width:0.3;"/><text fill="#000000" font-family="sans-serif" font-size="8.4" lengthAdjust="spacing" textLength="26.1407" x="189.9517" y="49.0835">Servlet</text></g><!--reverse link Cart to CD--><g id="link_Cart_CD"><path codeLine="107" d="M62.8977,239.8733 C61.6917,260.2073 60.768,275.964 59.52,297.036 " fill="none" id="Cart-backto-CD" style="stroke:#181818;stroke-width:0.6;"/><polygon fill="#181818" points="63.324,232.686,60.7151,236.1375,62.8977,239.8733,65.5067,236.4217,63.324,232.686" style="stroke:#181818;stroke-width:0.6;"/><polygon fill="#000000" points="63.945,277.3147,66.0254,272.0011,62.5049,271.7931,63.945,277.3147" style="stroke:#000000;stroke-width:0.6;"/><text fill="#000000" font-family="sans-serif" font-size="7.8" lengthAdjust="spacing" textLength="31.2156" x="69.522" y="276.8862">Contiene</text><text fill="#000000" font-family="sans-serif" font-size="7.8" lengthAdjust="spacing" textLength="4.3368" x="58.718" y="244.6693">1</text><text fill="#000000" font-family="sans-serif" font-size="7.8" lengthAdjust="spacing" textLength="11.7078" x="48.0229" y="290.2858">0..*</text></g><!--link Purchase to PurchaseDAO--><g id="link_Purchase_PurchaseDAO"><path codeLine="109" d="M199.38,227.742 C200.928,263.31 202.89,308.412 204.15,337.362 " fill="none" id="Purchase-PurchaseDAO" style="stroke:#181818;stroke-width:0.6;"/><polygon fill="#000000" points="204.3436,271.3228,202.8178,276.8214,206.3412,276.6681,204.3436,271.3228" style="stroke:#000000;stroke-width:0.6;"/><text fill="#000000" font-family="sans-serif" font-size="7.8" lengthAdjust="spacing" textLength="29.0394" x="209.874" y="276.8862">Registra</text><text fill="#000000" font-family="sans-serif" font-size="7.8" lengthAdjust="spacing" textLength="11.7078" x="187.7361" y="239.5484">0..*</text><text fill="#000000" font-family="sans-serif" font-size="7.8" lengthAdjust="spacing" textLength="4.3368" x="199.4652" y="330.6088">1</text></g><!--link User to UserDAO--><g id="link_User_UserDAO"><path codeLine="110" d="M499.782,227.742 C478.548,257.568 452.544,294.102 432.546,322.188 " fill="none" id="User-UserDAO" style="stroke:#181818;stroke-width:0.6;"/><polygon fill="#000000" points="474.4618,271.876,469.8779,275.2745,472.751,277.3198,474.4618,271.876" style="stroke:#000000;stroke-width:0.6;"/><text fill="#000000" font-family="sans-serif" font-size="7.8" lengthAdjust="spacing" textLength="61.9788" x="478.122" y="276.8862">Registra y verifica</text><text fill="#000000" font-family="sans-serif" font-size="7.8" lengthAdjust="spacing" textLength="11.7078" x="484.9994" y="239.5484">0..*</text><text fill="#000000" font-family="sans-serif" font-size="7.8" lengthAdjust="spacing" textLength="4.3368" x="431.2497" y="315.5899">1</text></g><!--reverse link User to Password--><g id="link_User_Password"><path codeLine="111" d="M554.789,234.6978 C563.759,268.2618 573.144,303.354 580.884,332.316 " fill="none" id="User-backto-Password" style="stroke:#181818;stroke-width:0.6;"/><polygon fill="#181818" points="552.93,227.742,551.5409,231.8396,554.789,234.6978,556.1781,230.6002,552.93,227.742" style="stroke:#181818;stroke-width:0.6;"/><polygon fill="#000000" points="569.5387,277.2182,569.8408,271.5199,566.4337,272.4306,569.5387,277.2182" style="stroke:#000000;stroke-width:0.6;"/><text fill="#000000" font-family="sans-serif" font-size="7.8" lengthAdjust="spacing" textLength="19.5078" x="574.164" y="276.8862">Tiene</text><text fill="#000000" font-family="sans-serif" font-size="7.8" lengthAdjust="spacing" textLength="4.3368" x="549.6857" y="239.5484">1</text><text fill="#000000" font-family="sans-serif" font-size="7.8" lengthAdjust="spacing" textLength="4.3368" x="575.2535" y="325.5545">1</text></g><!--reverse link DataBase to UserDAO--><g id="link_DataBase_UserDAO"><path codeLine="113" d="M368.3185,258.0294 C375.6145,282.2274 381.33,301.176 387.684,322.254 " fill="none" id="DataBase-backto-UserDAO" style="stroke:#181818;stroke-width:0.6;"/><polygon fill="#181818" points="366.24,251.136,364.9814,255.2755,368.3185,258.0294,369.5771,253.8899,366.24,251.136" style="stroke:#181818;stroke-width:0.6;"/><polygon fill="#000000" points="377.5281,277.1922,377.6496,271.4872,374.2731,272.5053,377.5281,277.1922" style="stroke:#000000;stroke-width:0.6;"/><text fill="#000000" font-family="sans-serif" font-size="7.8" lengthAdjust="spacing" textLength="69.7945" x="382.062" y="276.8862">Proporciona interfaz</text><text fill="#000000" font-family="sans-serif" font-size="7.8" lengthAdjust="spacing" textLength="4.3368" x="363.2766" y="263.1781">1</text><text fill="#000000" font-family="sans-serif" font-size="7.8" lengthAdjust="spacing" textLength="4.3368" x="381.8995" y="315.432">1</text></g><!--reverse link DataBase to PurchaseDAO--><g id="link_DataBase_PurchaseDAO"><path codeLine="114" d="M283.3506,257.0016 C261.7266,287.3796 242.43,314.484 226.146,337.362 " fill="none" id="DataBase-backto-PurchaseDAO" style="stroke:#181818;stroke-width:0.6;"/><polygon fill="#181818" points="287.526,251.136,283.4831,252.677,283.3506,257.0016,287.3935,255.4606,287.526,251.136" style="stroke:#181818;stroke-width:0.6;"/><polygon fill="#000000" points="275.3822,276.764,279.9661,273.3653,277.093,271.3201,275.3822,276.764" style="stroke:#000000;stroke-width:0.6;"/><text fill="#000000" font-family="sans-serif" font-size="7.8" lengthAdjust="spacing" textLength="69.7945" x="282.522" y="276.8862">Proporciona interfaz</text><text fill="#000000" font-family="sans-serif" font-size="7.8" lengthAdjust="spacing" textLength="4.3368" x="280.0119" y="263.1781">1</text><text fill="#000000" font-family="sans-serif" font-size="7.8" lengthAdjust="spacing" textLength="4.3368" x="224.6918" y="330.6088">1</text></g><!--reverse link Servlet to Cart--><g id="link_Servlet_Cart"><path codeLine="116" d="M192.995,41.3679 C182.279,51.7419 160.974,72.504 139.422,94.68 C133.698,100.566 127.77,106.752 121.884,112.95 " fill="none" id="Servlet-backto-Cart" style="stroke:#181818;stroke-width:0.6;"/><polygon fill="#181818" points="198.168,36.36,193.9122,37.1396,192.995,41.3679,197.2508,40.5883,198.168,36.36" style="stroke:#181818;stroke-width:0.6;"/><polygon fill="#000000" points="167.9857,73.8883,173.0615,71.2809,170.5595,68.7954,167.9857,73.8883" style="stroke:#000000;stroke-width:0.6;"/><text fill="#000000" font-family="sans-serif" font-size="7.8" lengthAdjust="spacing" textLength="19.5078" x="175.5" y="74.3262">Tiene</text><text fill="#000000" font-family="sans-serif" font-size="7.8" lengthAdjust="spacing" textLength="4.3368" x="188.5456" y="35.3622">1</text><text fill="#000000" font-family="sans-serif" font-size="7.8" lengthAdjust="spacing" textLength="4.3368" x="121.7442" y="106.2786">1</text></g><!--reverse link Servlet to DataBase--><g id="link_Servlet_DataBase"><path codeLine="117" d="M212.749,41.4653 C222.415,51.1853 240.756,69.624 265.434,94.44 " fill="none" id="Servlet-backto-DataBase" style="stroke:#181818;stroke-width:0.6;"/><polygon fill="#181818" points="207.672,36.36,208.5087,40.6049,212.749,41.4653,211.9123,37.2203,207.672,36.36" style="stroke:#181818;stroke-width:0.6;"/><polygon fill="#000000" points="249.4415,73.8871,246.8648,68.7956,244.3642,71.2825,249.4415,73.8871" style="stroke:#000000;stroke-width:0.6;"/><text fill="#000000" font-family="sans-serif" font-size="7.8" lengthAdjust="spacing" textLength="26.013" x="252.726" y="74.3262">Accede</text><text fill="#000000" font-family="sans-serif" font-size="7.8" lengthAdjust="spacing" textLength="4.3368" x="213.1601" y="38.1582">1</text><text fill="#000000" font-family="sans-serif" font-size="7.8" lengthAdjust="spacing" textLength="4.3368" x="256.3945" y="87.6442">1</text></g><!--reverse link Password to Password$Integer256--><g id="link_Password_Password$Integer256"><path codeLine="119" d="M590.022,411.48 C590.022,433.224 590.022,451.668 590.022,473.394 " fill="none" id="Password-backto-Password$Integer256" style="stroke:#181818;stroke-width:0.6;stroke-dasharray:7.0,7.0;"/><ellipse cx="590.022" cy="406.68" fill="#FFFFFF" rx="4.8" ry="4.8" style="stroke:#181818;stroke-width:0.6;"/><line style="stroke:#181818;stroke-width:0.6;" x1="590.022" x2="590.022" y1="411.48" y2="401.88"/><line style="stroke:#181818;stroke-width:0.6;" x1="585.222" x2="594.822" y1="406.68" y2="406.68"/></g><!--SRC=[fLNVRzem47xFNs5LUw1hYxP9smD2I3JG5ga5MkZJD5N6kOAdnCuSXubLtT- -isCdJg6Lfhw0_TtlytSNpNKAPCJfMj6CaWG8Isa11PvIaadybL5ae8B48_8KdP65LboiYQ0PD3TQwerKpPt9KcYrGo2HvGeZv8epY4wyV0rwYWuwnoreQBsy0EFAbKMTCqJdnb-egMLriDXAoXIe8F2hf6dHcQr-0jD6m8Kc6rfiOgmCDPyZNzo8QdgEXPD-lq0lAMWf1WDRy5EXgURikT5XfL8WzEWybCPI28p2fS3g_H4LxWjGe-6CbDK_8lDICKm239etPqolTkQAYcVJYydb_TrmEPbD7oucr-DGgSx7TCcdPEi_b9HjfR-rjRQI9_Zkie2s6uihMFD2Wp9rTCnFBKdbcWiBL-cUph6JlwLAQWsQ9BxOMiVTZSurEkvxO62VrLqAfnu-KTYsf-ZlAmq_4FaT8Lr1bWSJeM4DwilNRsHBqn82dZ6PvLJ1KYxe5fBQqHj4t6VjVjGFGKIJG2h5-liF8ifi1SeNodY-gL_W_qEwqQPAsn1NE1itDE_7erCNV40O2eqvQ8HjooOQikB5G2wbfcd7pnW2joKLckjT9nw5V32s29sYLWtZbW4DJj9s6yj2Ez0NnejnbkjTmr26i6frqCzSQtnDNZUJwSFzOdmt7TwC7wx7qylbrHjC6Yf5TvOnLSjiySPtySxnm1sWm30cMM1oaE78uOQqo6q9kEoSnUj34AxYLRa3itkNF0CiDij9WauHU4mbrLXIOTwlaM8Hk3ggxLcf-4O7DB5EBT1s6rYnogJTzZ0ni_BSTwAUfDmTWcy5LSbobqCRcNgMxs5XbZw2nVPYX9e-YaiuwXmZezKMYHT5blv7du_8nxCpSlIfs_ruX5-xdk65vY203AAeRhoJ6qsq29PIZznPBYXA-f5jHLlLaJ9Gsv4jAFx8MMFXap2kNHKzV06NHBtnGxtQxrp9N2g6tAM6xA0UwH-qEcZKoliLmyWrg6LeUjLaT4Z3n-kH8MEGLDtpJtFIxHxQR_y0]--></g></svg>