<svg xmlns="http://www.w3.org/2000/svg" xmlns:xlink="http://www.w3.org/1999/xlink" contentStyleType="text/css" height="957px" preserveAspectRatio="none" style="width:1527px;height:957px;background:#FFFFFF;" version="1.1" viewBox="0 0 1527 957" width="1527px" zoomAndPan="magnify"><title>Registrar usuario y guardar pedido</title><defs/><g><text fill="#000000" font-family="sans-serif" font-size="14" font-weight="bold" lengthAdjust="spacing" textLength="233.3931" x="648.4781" y="28.0059">Registrar usuario y guardar pedido</text><line style="stroke:#181818;stroke-width:0.5;stroke-dasharray:5.0,5.0;" x1="32" x2="32" y1="119.5999" y2="876"/><line style="stroke:#181818;stroke-width:0.5;stroke-dasharray:5.0,5.0;" x1="237.0882" x2="237.0882" y1="119.5999" y2="876"/><line style="stroke:#181818;stroke-width:0.5;stroke-dasharray:5.0,5.0;" x1="328.21" x2="328.21" y1="119.5999" y2="876"/><line style="stroke:#181818;stroke-width:0.5;stroke-dasharray:5.0,5.0;" x1="463.5191" x2="463.5191" y1="119.5999" y2="876"/><line style="stroke:#181818;stroke-width:0.5;stroke-dasharray:5.0,5.0;" x1="585.6132" x2="585.6132" y1="119.5999" y2="876"/><line style="stroke:#181818;stroke-width:0.5;stroke-dasharray:5.0,5.0;" x1="704.1803" x2="704.1803" y1="119.5999" y2="876"/><line style="stroke:#181818;stroke-width:0.5;stroke-dasharray:5.0,5.0;" x1="775.856" x2="775.856" y1="119.5999" y2="876"/><line style="stroke:#181818;stroke-width:0.5;stroke-dasharray:5.0,5.0;" x1="827.3019" x2="827.3019" y1="280.4999" y2="876"/><line style="stroke:#181818;stroke-width:0.5;stroke-dasharray:5.0,5.0;" x1="895.8558" x2="895.8558" y1="588.6999" y2="876"/><line style="stroke:#181818;stroke-width:0.5;stroke-dasharray:5.0,5.0;" x1="979.9916" x2="979.9916" y1="119.5999" y2="876"/><line style="stroke:#181818;stroke-width:0.5;stroke-dasharray:5.0,5.0;" x1="1119.7387" x2="1119.7387" y1="119.5999" y2="876"/><line style="stroke:#181818;stroke-width:0.5;stroke-dasharray:5.0,5.0;" x1="1218.6305" x2="1218.6305" y1="119.5999" y2="876"/><line style="stroke:#181818;stroke-width:0.5;stroke-dasharray:5.0,5.0;" x1="1477.8477" x2="1477.8477" y1="119.5999" y2="876"/><text fill="#000000" font-family="sans-serif" font-size="14" lengthAdjust="spacing" textLength="48.2298" x="5" y="115.8059">Usuario</text><ellipse cx="32.1149" cy="51.2999" fill="#E2E2F0" rx="8" ry="8" style="stroke:#181818;stroke-width:0.5;"/><path d="M32.1149,59.2999 L32.1149,86.2999 M19.1149,67.2999 L45.1149,67.2999 M32.1149,86.2999 L19.1149,101.2999 M32.1149,86.2999 L45.1149,101.2999 " fill="none" style="stroke:#181818;stroke-width:0.5;"/><text fill="#000000" font-family="sans-serif" font-size="14" lengthAdjust="spacing" textLength="48.2298" x="5" y="888.006">Usuario</text><ellipse cx="32.1149" cy="900.2999" fill="#E2E2F0" rx="8" ry="8" style="stroke:#181818;stroke-width:0.5;"/><path d="M32.1149,908.2999 L32.1149,935.2999 M19.1149,916.2999 L45.1149,916.2999 M32.1149,935.2999 L19.1149,950.2999 M32.1149,935.2999 L45.1149,950.2999 " fill="none" style="stroke:#181818;stroke-width:0.5;"/><rect fill="#FFFF99" height="30.7999" rx="2.5" ry="2.5" style="stroke:#181818;stroke-width:0.5;" width="66.1218" x="204.0882" y="87.7999"/><text fill="#000000" font-family="sans-serif" font-size="14" lengthAdjust="spacing" textLength="52.1218" x="211.0882" y="107.8059">Registro</text><rect fill="#FFFF99" height="30.7999" rx="2.5" ry="2.5" style="stroke:#181818;stroke-width:0.5;" width="66.1218" x="204.0882" y="875"/><text fill="#000000" font-family="sans-serif" font-size="14" lengthAdjust="spacing" textLength="52.1218" x="211.0882" y="895.006">Registro</text><rect fill="#FFFF99" height="30.7999" rx="2.5" ry="2.5" style="stroke:#181818;stroke-width:0.5;" width="96.4597" x="280.21" y="87.7999"/><text fill="#000000" font-family="sans-serif" font-size="14" lengthAdjust="spacing" textLength="82.4597" x="287.21" y="107.8059">Confirmaci&#243;n</text><rect fill="#FFFF99" height="30.7999" rx="2.5" ry="2.5" style="stroke:#181818;stroke-width:0.5;" width="96.4597" x="280.21" y="875"/><text fill="#000000" font-family="sans-serif" font-size="14" lengthAdjust="spacing" textLength="82.4597" x="287.21" y="895.006">Confirmaci&#243;n</text><rect fill="#FF9999" height="47.5999" rx="2.5" ry="2.5" style="stroke:#181818;stroke-width:0.5;" width="73.1218" x="427.5191" y="71"/><text fill="#000000" font-family="sans-serif" font-size="14" lengthAdjust="spacing" textLength="59.1218" x="434.5191" y="91.0059">MiniStore</text><text fill="#000000" font-family="sans-serif" font-size="14" lengthAdjust="spacing" textLength="50.5538" x="438.803" y="107.8059">(servlet)</text><rect fill="#FF9999" height="47.5999" rx="2.5" ry="2.5" style="stroke:#181818;stroke-width:0.5;" width="73.1218" x="427.5191" y="875"/><text fill="#000000" font-family="sans-serif" font-size="14" lengthAdjust="spacing" textLength="59.1218" x="434.5191" y="895.006">MiniStore</text><text fill="#000000" font-family="sans-serif" font-size="14" lengthAdjust="spacing" textLength="50.5538" x="438.803" y="911.8059">(servlet)</text><rect fill="#FF9999" height="30.7999" rx="2.5" ry="2.5" style="stroke:#181818;stroke-width:0.5;" width="84.7837" x="543.6132" y="87.7999"/><text fill="#000000" font-family="sans-serif" font-size="14" lengthAdjust="spacing" textLength="70.7837" x="550.6132" y="107.8059">UserHelper</text><rect fill="#FF9999" height="30.7999" rx="2.5" ry="2.5" style="stroke:#181818;stroke-width:0.5;" width="84.7837" x="543.6132" y="875"/><text fill="#000000" font-family="sans-serif" font-size="14" lengthAdjust="spacing" textLength="70.7837" x="550.6132" y="895.006">UserHelper</text><rect fill="#FF9999" height="30.7999" rx="2.5" ry="2.5" style="stroke:#181818;stroke-width:0.5;" width="81.6757" x="664.1803" y="87.7999"/><text fill="#000000" font-family="sans-serif" font-size="14" lengthAdjust="spacing" textLength="67.6757" x="671.1803" y="107.8059">CartHelper</text><rect fill="#FF9999" height="30.7999" rx="2.5" ry="2.5" style="stroke:#181818;stroke-width:0.5;" width="81.6757" x="664.1803" y="875"/><text fill="#000000" font-family="sans-serif" font-size="14" lengthAdjust="spacing" textLength="67.6757" x="671.1803" y="895.006">CartHelper</text><rect fill="#99FF99" height="30.7999" rx="2.5" ry="2.5" style="stroke:#181818;stroke-width:0.5;" width="40.4459" x="755.856" y="87.7999"/><text fill="#000000" font-family="sans-serif" font-size="14" lengthAdjust="spacing" textLength="26.4459" x="762.856" y="107.8059">Cart</text><rect fill="#99FF99" height="30.7999" rx="2.5" ry="2.5" style="stroke:#181818;stroke-width:0.5;" width="40.4459" x="755.856" y="875"/><text fill="#000000" font-family="sans-serif" font-size="14" lengthAdjust="spacing" textLength="26.4459" x="762.856" y="895.006">Cart</text><rect fill="#99FF99" height="30.7999" rx="2.5" ry="2.5" style="stroke:#181818;stroke-width:0.5;" width="43.5539" x="806.3019" y="875"/><text fill="#000000" font-family="sans-serif" font-size="14" lengthAdjust="spacing" textLength="29.5539" x="813.3019" y="895.006">User</text><rect fill="#99FF99" height="30.7999" rx="2.5" ry="2.5" style="stroke:#181818;stroke-width:0.5;" width="73.1358" x="859.8558" y="875"/><text fill="#000000" font-family="sans-serif" font-size="14" lengthAdjust="spacing" textLength="59.1358" x="866.8558" y="895.006">Purchase</text><rect fill="#FFA500" height="30.7999" rx="2.5" ry="2.5" style="stroke:#181818;stroke-width:0.5;" width="75.4737" x="942.9916" y="87.7999"/><text fill="#000000" font-family="sans-serif" font-size="14" lengthAdjust="spacing" textLength="61.4737" x="949.9916" y="107.8059">DataBase</text><rect fill="#FFA500" height="30.7999" rx="2.5" ry="2.5" style="stroke:#181818;stroke-width:0.5;" width="75.4737" x="942.9916" y="875"/><text fill="#000000" font-family="sans-serif" font-size="14" lengthAdjust="spacing" textLength="61.4737" x="949.9916" y="895.006">DataBase</text><rect fill="#FFA500" height="30.7999" rx="2.5" ry="2.5" style="stroke:#181818;stroke-width:0.5;" width="73.8918" x="1083.7387" y="87.7999"/><text fill="#000000" font-family="sans-serif" font-size="14" lengthAdjust="spacing" textLength="59.8918" x="1090.7387" y="107.8059">UserDAO</text><rect fill="#FFA500" height="30.7999" rx="2.5" ry="2.5" style="stroke:#181818;stroke-width:0.5;" width="73.8918" x="1083.7387" y="875"/><text fill="#000000" font-family="sans-serif" font-size="14" lengthAdjust="spacing" textLength="59.8918" x="1090.7387" y="895.006">UserDAO</text><rect fill="#FFA500" height="30.7999" rx="2.5" ry="2.5" style="stroke:#181818;stroke-width:0.5;" width="103.4736" x="1167.6305" y="87.7999"/><text fill="#000000" font-family="sans-serif" font-size="14" lengthAdjust="spacing" textLength="89.4736" x="1174.6305" y="107.8059">PurchaseDAO</text><rect fill="#FFA500" height="30.7999" rx="2.5" ry="2.5" style="stroke:#181818;stroke-width:0.5;" width="103.4736" x="1167.6305" y="875"/><text fill="#000000" font-family="sans-serif" font-size="14" lengthAdjust="spacing" textLength="89.4736" x="1174.6305" y="895.006">PurchaseDAO</text><text fill="#000000" font-family="sans-serif" font-size="14" lengthAdjust="spacing" textLength="89.5016" x="1430.8477" y="115.8059">Base de datos</text><path d="M1460.5985,66.7999 C1460.5985,56.7999 1478.5985,56.7999 1478.5985,56.7999 C1478.5985,56.7999 1496.5985,56.7999 1496.5985,66.7999 L1496.5985,92.7999 C1496.5985,102.7999 1478.5985,102.7999 1478.5985,102.7999 C1478.5985,102.7999 1460.5985,102.7999 1460.5985,92.7999 L1460.5985,66.7999 " fill="#FFA500" style="stroke:#181818;stroke-width:1.5;"/><path d="M1460.5985,66.7999 C1460.5985,76.7999 1478.5985,76.7999 1478.5985,76.7999 C1478.5985,76.7999 1496.5985,76.7999 1496.5985,66.7999 " fill="none" style="stroke:#181818;stroke-width:1.5;"/><text fill="#000000" font-family="sans-serif" font-size="14" lengthAdjust="spacing" textLength="89.5016" x="1430.8477" y="888.006">Base de datos</text><path d="M1460.5985,901.7999 C1460.5985,891.7999 1478.5985,891.7999 1478.5985,891.7999 C1478.5985,891.7999 1496.5985,891.7999 1496.5985,901.7999 L1496.5985,927.7999 C1496.5985,937.7999 1478.5985,937.7999 1478.5985,937.7999 C1478.5985,937.7999 1460.5985,937.7999 1460.5985,927.7999 L1460.5985,901.7999 " fill="#FFA500" style="stroke:#181818;stroke-width:1.5;"/><path d="M1460.5985,901.7999 C1460.5985,911.7999 1478.5985,911.7999 1478.5985,911.7999 C1478.5985,911.7999 1496.5985,911.7999 1496.5985,901.7999 " fill="none" style="stroke:#181818;stroke-width:1.5;"/><polygon fill="#181818" points="225.1491,178.3999,235.1491,182.3999,225.1491,186.3999,229.1491,182.3999" style="stroke:#181818;stroke-width:1.0;"/><line style="stroke:#181818;stroke-width:1.0;stroke-dasharray:2.0,2.0;" x1="32.1149" x2="231.1491" y1="182.3999" y2="182.3999"/><text fill="#000000" font-family="sans-serif" font-size="13" font-weight="bold" lengthAdjust="spacing" textLength="7.228" x="39.1149" y="161.2769">1</text><text fill="#000000" font-family="sans-serif" font-size="13" lengthAdjust="spacing" textLength="169.8062" x="50.3429" y="145.6769">Introduce correo, contrase&#241;a,</text><text fill="#000000" font-family="sans-serif" font-size="13" lengthAdjust="spacing" textLength="136.5652" x="50.3429" y="161.2769">tipo y n&#250;mero de tarjeta</text><text fill="#000000" font-family="sans-serif" font-size="13" lengthAdjust="spacing" textLength="167.6222" x="50.3429" y="176.8769">despu&#233;s de rellenar el carrito</text><polygon fill="#181818" points="452.0799,207.9999,462.0799,211.9999,452.0799,215.9999,456.0799,211.9999" style="stroke:#181818;stroke-width:1.0;"/><line style="stroke:#181818;stroke-width:1.0;" x1="237.1491" x2="458.0799" y1="211.9999" y2="211.9999"/><text fill="#000000" font-family="sans-serif" font-size="13" font-weight="bold" lengthAdjust="spacing" textLength="7.228" x="244.1491" y="206.4769">2</text><text fill="#000000" font-family="sans-serif" font-size="13" lengthAdjust="spacing" textLength="46.9561" x="255.3771" y="206.4769">signup()</text><polygon fill="#181818" points="574.0051,237.5999,584.0051,241.5999,574.0051,245.5999,578.0051,241.5999" style="stroke:#181818;stroke-width:1.0;"/><line style="stroke:#181818;stroke-width:1.0;" x1="464.0799" x2="580.0051" y1="241.5999" y2="241.5999"/><text fill="#000000" font-family="sans-serif" font-size="13" font-weight="bold" lengthAdjust="spacing" textLength="7.228" x="471.0799" y="236.0769">3</text><text fill="#000000" font-family="sans-serif" font-size="13" lengthAdjust="spacing" textLength="46.9561" x="482.3079" y="236.0769">signup()</text><line style="stroke:#181818;stroke-width:1.0;" x1="804.3019" x2="794.3019" y1="271.1999" y2="267.1999"/><line style="stroke:#181818;stroke-width:1.0;" x1="804.3019" x2="794.3019" y1="271.1999" y2="275.1999"/><line style="stroke:#181818;stroke-width:1.0;stroke-dasharray:2.0,2.0;" x1="586.0051" x2="805.3019" y1="271.1999" y2="271.1999"/><text fill="#000000" font-family="sans-serif" font-size="13" font-weight="bold" lengthAdjust="spacing" textLength="7.228" x="593.0051" y="265.6769">4</text><text fill="#000000" font-family="sans-serif" font-size="13" lengthAdjust="spacing" textLength="50.5831" x="604.2331" y="265.6769">&#171;create&#187;</text><rect fill="#99FF99" height="30.7999" rx="2.5" ry="2.5" style="stroke:#181818;stroke-width:0.5;" width="43.5539" x="806.3019" y="249.5999"/><text fill="#000000" font-family="sans-serif" font-size="14" lengthAdjust="spacing" textLength="29.5539" x="813.3019" y="269.6059">User</text><line style="stroke:#181818;stroke-width:1.0;" x1="587.0051" x2="597.0051" y1="312.9999" y2="308.9999"/><line style="stroke:#181818;stroke-width:1.0;" x1="587.0051" x2="597.0051" y1="312.9999" y2="316.9999"/><line style="stroke:#181818;stroke-width:1.0;stroke-dasharray:2.0,2.0;" x1="586.0051" x2="827.0789" y1="312.9999" y2="312.9999"/><text fill="#000000" font-family="sans-serif" font-size="13" font-weight="bold" lengthAdjust="spacing" textLength="7.228" x="603.0051" y="307.4769">5</text><text fill="#000000" font-family="sans-serif" font-size="13" lengthAdjust="spacing" textLength="25.285" x="614.2331" y="307.4769">user</text><polygon fill="#181818" points="968.7284,338.5999,978.7284,342.5999,968.7284,346.5999,972.7284,342.5999" style="stroke:#181818;stroke-width:1.0;"/><line style="stroke:#181818;stroke-width:1.0;" x1="586.0051" x2="974.7284" y1="342.5999" y2="342.5999"/><text fill="#000000" font-family="sans-serif" font-size="13" font-weight="bold" lengthAdjust="spacing" textLength="7.228" x="593.0051" y="337.0769">6</text><text fill="#000000" font-family="sans-serif" font-size="13" lengthAdjust="spacing" textLength="104.7281" x="604.2331" y="337.0769">registerUser(user)</text><polygon fill="#181818" points="1108.6846,368.1999,1118.6846,372.1999,1108.6846,376.1999,1112.6846,372.1999" style="stroke:#181818;stroke-width:1.0;"/><line style="stroke:#181818;stroke-width:1.0;" x1="980.7284" x2="1114.6846" y1="372.1999" y2="372.1999"/><text fill="#000000" font-family="sans-serif" font-size="13" font-weight="bold" lengthAdjust="spacing" textLength="7.228" x="987.7284" y="366.6769">7</text><text fill="#000000" font-family="sans-serif" font-size="13" lengthAdjust="spacing" textLength="104.7281" x="998.9565" y="366.6769">registerUser(user)</text><polygon fill="#181818" points="1466.5985,397.7999,1476.5985,401.7999,1466.5985,405.7999,1470.5985,401.7999" style="stroke:#181818;stroke-width:1.0;"/><line style="stroke:#181818;stroke-width:1.0;" x1="1120.6846" x2="1472.5985" y1="401.7999" y2="401.7999"/><text fill="#000000" font-family="sans-serif" font-size="13" font-weight="bold" lengthAdjust="spacing" textLength="7.228" x="1127.6846" y="396.2769">8</text><text fill="#000000" font-family="sans-serif" font-size="13" lengthAdjust="spacing" textLength="156.0912" x="1138.9126" y="396.2769">inserta en la base de datos</text><line style="stroke:#181818;stroke-width:1.0;" x1="587.0051" x2="597.0051" y1="431.3999" y2="427.3999"/><line style="stroke:#181818;stroke-width:1.0;" x1="587.0051" x2="597.0051" y1="431.3999" y2="435.3999"/><line style="stroke:#181818;stroke-width:1.0;stroke-dasharray:2.0,2.0;" x1="586.0051" x2="979.7284" y1="431.3999" y2="431.3999"/><text fill="#000000" font-family="sans-serif" font-size="13" font-weight="bold" lengthAdjust="spacing" textLength="7.228" x="603.0051" y="425.8769">9</text><text fill="#000000" font-family="sans-serif" font-size="13" lengthAdjust="spacing" textLength="13.728" x="614.2331" y="425.8769">ok</text><polygon fill="#181818" points="693.0182,456.9999,703.0182,460.9999,693.0182,464.9999,697.0182,460.9999" style="stroke:#181818;stroke-width:1.0;"/><line style="stroke:#181818;stroke-width:1.0;" x1="586.0051" x2="699.0182" y1="460.9999" y2="460.9999"/><text fill="#000000" font-family="sans-serif" font-size="13" font-weight="bold" lengthAdjust="spacing" textLength="14.456" x="593.0051" y="455.4769">10</text><text fill="#000000" font-family="sans-serif" font-size="13" lengthAdjust="spacing" textLength="76.5571" x="611.4611" y="455.4769">retrieveCart()</text><polygon fill="#181818" points="597.0051,486.5999,587.0051,490.5999,597.0051,494.5999,593.0051,490.5999" style="stroke:#181818;stroke-width:1.0;"/><line style="stroke:#181818;stroke-width:1.0;stroke-dasharray:2.0,2.0;" x1="591.0051" x2="704.0182" y1="490.5999" y2="490.5999"/><text fill="#000000" font-family="sans-serif" font-size="13" font-weight="bold" lengthAdjust="spacing" textLength="14.456" x="603.0051" y="485.0769">11</text><text fill="#000000" font-family="sans-serif" font-size="13" lengthAdjust="spacing" textLength="21.671" x="621.4611" y="485.0769">cart</text><polygon fill="#181818" points="764.079,516.2,774.079,520.2,764.079,524.2,768.079,520.2" style="stroke:#181818;stroke-width:1.0;"/><line style="stroke:#181818;stroke-width:1.0;" x1="586.0051" x2="770.079" y1="520.2" y2="520.2"/><text fill="#000000" font-family="sans-serif" font-size="13" font-weight="bold" lengthAdjust="spacing" textLength="14.456" x="593.0051" y="514.677">12</text><text fill="#000000" font-family="sans-serif" font-size="13" lengthAdjust="spacing" textLength="55.6271" x="611.4611" y="514.677">getTotal()</text><polygon fill="#181818" points="597.0051,545.8,587.0051,549.8,597.0051,553.8,593.0051,549.8" style="stroke:#181818;stroke-width:1.0;"/><line style="stroke:#181818;stroke-width:1.0;stroke-dasharray:2.0,2.0;" x1="591.0051" x2="775.079" y1="549.8" y2="549.8"/><text fill="#000000" font-family="sans-serif" font-size="13" font-weight="bold" lengthAdjust="spacing" textLength="14.456" x="603.0051" y="544.277">13</text><text fill="#000000" font-family="sans-serif" font-size="13" lengthAdjust="spacing" textLength="24.57" x="621.4611" y="544.277">total</text><line style="stroke:#181818;stroke-width:1.0;" x1="857.8558" x2="847.8558" y1="579.4" y2="575.4"/><line style="stroke:#181818;stroke-width:1.0;" x1="857.8558" x2="847.8558" y1="579.4" y2="583.4"/><line style="stroke:#181818;stroke-width:1.0;stroke-dasharray:2.0,2.0;" x1="586.0051" x2="858.8558" y1="579.4" y2="579.4"/><text fill="#000000" font-family="sans-serif" font-size="13" font-weight="bold" lengthAdjust="spacing" textLength="14.456" x="593.0051" y="573.877">14</text><text fill="#000000" font-family="sans-serif" font-size="13" lengthAdjust="spacing" textLength="50.5831" x="611.4611" y="573.877">&#171;create&#187;</text><rect fill="#99FF99" height="30.7999" rx="2.5" ry="2.5" style="stroke:#181818;stroke-width:0.5;" width="73.1358" x="859.8558" y="557.8"/><text fill="#000000" font-family="sans-serif" font-size="14" lengthAdjust="spacing" textLength="59.1358" x="866.8558" y="577.8059">Purchase</text><line style="stroke:#181818;stroke-width:1.0;" x1="587.0051" x2="597.0051" y1="621.1999" y2="617.1999"/><line style="stroke:#181818;stroke-width:1.0;" x1="587.0051" x2="597.0051" y1="621.1999" y2="625.1999"/><line style="stroke:#181818;stroke-width:1.0;stroke-dasharray:2.0,2.0;" x1="586.0051" x2="895.4237" y1="621.1999" y2="621.1999"/><text fill="#000000" font-family="sans-serif" font-size="13" font-weight="bold" lengthAdjust="spacing" textLength="14.456" x="603.0051" y="615.6769">15</text><text fill="#000000" font-family="sans-serif" font-size="13" lengthAdjust="spacing" textLength="53.4691" x="621.4611" y="615.6769">purchase</text><polygon fill="#181818" points="968.7284,646.7999,978.7284,650.7999,968.7284,654.7999,972.7284,650.7999" style="stroke:#181818;stroke-width:1.0;"/><line style="stroke:#181818;stroke-width:1.0;" x1="586.0051" x2="974.7284" y1="650.7999" y2="650.7999"/><text fill="#000000" font-family="sans-serif" font-size="13" font-weight="bold" lengthAdjust="spacing" textLength="14.456" x="593.0051" y="645.2769">16</text><text fill="#000000" font-family="sans-serif" font-size="13" lengthAdjust="spacing" textLength="138.7232" x="611.4611" y="645.2769">addPurchase(purchase)</text><polygon fill="#181818" points="1207.3673,676.3999,1217.3673,680.3999,1207.3673,684.3999,1211.3673,680.3999" style="stroke:#181818;stroke-width:1.0;"/><line style="stroke:#181818;stroke-width:1.0;" x1="980.7284" x2="1213.3673" y1="680.3999" y2="680.3999"/><text fill="#000000" font-family="sans-serif" font-size="13" font-weight="bold" lengthAdjust="spacing" textLength="14.456" x="987.7284" y="674.8769">17</text><text fill="#000000" font-family="sans-serif" font-size="13" lengthAdjust="spacing" textLength="138.7232" x="1006.1845" y="674.8769">addPurchase(purchase)</text><polygon fill="#181818" points="1466.5985,706,1476.5985,710,1466.5985,714,1470.5985,710" style="stroke:#181818;stroke-width:1.0;"/><line style="stroke:#181818;stroke-width:1.0;" x1="1219.3673" x2="1472.5985" y1="710" y2="710"/><text fill="#000000" font-family="sans-serif" font-size="13" font-weight="bold" lengthAdjust="spacing" textLength="14.456" x="1226.3673" y="704.477">18</text><text fill="#000000" font-family="sans-serif" font-size="13" lengthAdjust="spacing" textLength="216.7752" x="1244.8233" y="704.477">inserta la compra en la base de datos</text><line style="stroke:#181818;stroke-width:1.0;" x1="587.0051" x2="597.0051" y1="739.6" y2="735.6"/><line style="stroke:#181818;stroke-width:1.0;" x1="587.0051" x2="597.0051" y1="739.6" y2="743.6"/><line style="stroke:#181818;stroke-width:1.0;stroke-dasharray:2.0,2.0;" x1="586.0051" x2="979.7284" y1="739.6" y2="739.6"/><text fill="#000000" font-family="sans-serif" font-size="13" font-weight="bold" lengthAdjust="spacing" textLength="14.456" x="603.0051" y="734.077">19</text><text fill="#000000" font-family="sans-serif" font-size="13" lengthAdjust="spacing" textLength="13.728" x="621.4611" y="734.077">ok</text><polygon fill="#181818" points="764.079,765.2,774.079,769.2,764.079,773.2,768.079,769.2" style="stroke:#181818;stroke-width:1.0;"/><line style="stroke:#181818;stroke-width:1.0;" x1="586.0051" x2="770.079" y1="769.2" y2="769.2"/><text fill="#000000" font-family="sans-serif" font-size="13" font-weight="bold" lengthAdjust="spacing" textLength="14.456" x="593.0051" y="763.677">20</text><text fill="#000000" font-family="sans-serif" font-size="13" lengthAdjust="spacing" textLength="36.8291" x="611.4611" y="763.677">clear()</text><polygon fill="#181818" points="475.0799,794.8,465.0799,798.8,475.0799,802.8,471.0799,798.8" style="stroke:#181818;stroke-width:1.0;"/><line style="stroke:#181818;stroke-width:1.0;" x1="469.0799" x2="585.0051" y1="798.8" y2="798.8"/><text fill="#000000" font-family="sans-serif" font-size="13" font-weight="bold" lengthAdjust="spacing" textLength="14.456" x="481.0799" y="793.277">21</text><text fill="#000000" font-family="sans-serif" font-size="13" lengthAdjust="spacing" textLength="79.4691" x="499.536" y="793.277">changeView()</text><polygon fill="#181818" points="339.4398,824.4,329.4398,828.4,339.4398,832.4,335.4398,828.4" style="stroke:#181818;stroke-width:1.0;"/><line style="stroke:#181818;stroke-width:1.0;stroke-dasharray:2.0,2.0;" x1="333.4398" x2="463.0799" y1="828.4" y2="828.4"/><text fill="#000000" font-family="sans-serif" font-size="13" font-weight="bold" lengthAdjust="spacing" textLength="14.456" x="345.4398" y="822.877">22</text><text fill="#000000" font-family="sans-serif" font-size="13" lengthAdjust="spacing" textLength="93.1841" x="363.8959" y="822.877">Cambiar la vista</text><polygon fill="#181818" points="43.1149,854,33.1149,858,43.1149,862,39.1149,858" style="stroke:#181818;stroke-width:1.0;"/><line style="stroke:#181818;stroke-width:1.0;stroke-dasharray:2.0,2.0;" x1="37.1149" x2="327.4398" y1="858" y2="858"/><text fill="#000000" font-family="sans-serif" font-size="13" font-weight="bold" lengthAdjust="spacing" textLength="14.456" x="49.1149" y="852.477">23</text><text fill="#000000" font-family="sans-serif" font-size="13" lengthAdjust="spacing" textLength="186.3942" x="67.5709" y="852.477">Muestra el importe de la compra</text><!--SRC=[hLMnRjim4Dtv5OGpr0QYUfPW66ZZeHs25dNJASjPkYXi9L8zdLpqapeMtRhwntgKH5ksbGG9IXYmT7UFV7nyHxswPwxgP3wl2h3SbCNhr9Np6hytQ5ECCWCvGQcWOMURSeEa51ikK7_2tDHCGBgf6o3Zz4-ToqCcaGepapcb86L7-gRBgmg8JMegMIUWdOPQhqrkcqgVZOix6N5yX9jSENjdg8JKxFxOYOU721jd7m5U6slMGWTlxRH6sXR8inQ_xbuwN1oVu6wazXqM5P9-S8pXhkJvfJZznBY8uxFzUPulmNriABs76f-BMm73swTmZi3cUCPpzUQ3VYuky7mC6t2PSDjuRfEMOIO_O5UtfxqAkH6SwfsgesZPkpBHxwtOD6jIrAaZGdSf_nAIANQ_uVBMigcyzUtkRudYPrcCWRuYmwtDiAwQtQ_Q1mcB0gtq1XOw1IB3JlN6zujr7anqtOQcCnLSASc31GVvb10OsvmQU5IOTu14BnPTpNAf2BaXAurwKhpS7sCY17r78ldyr5VErFwCUnAY_MXTEDD-laqxdx4IPT1eTG5wCpo88OV58ee6BDot4uA7Fl9BCndSee-91FskH4qU0IKwH_xi68f3AVlN85rmr9by8J4cOJK66ie8MHRmqr1yhEJ0oG-L3yq-AgeeAjTqHVz5taId1G9DPoUvlIc5YxJ75uC_XiRqwC7LcyXSvSQ8muNFLYm2wkXcZbeJjVsLwEi6_RV3DuCfAqVSij_lIlq3]--></g></svg>