<svg xmlns="http://www.w3.org/2000/svg" xmlns:xlink="http://www.w3.org/1999/xlink" contentStyleType="text/css" height="536.4px" preserveAspectRatio="none" style="width:796px;height:536px;background:#FFFFFF;" version="1.1" viewBox="0 0 796 536" width="796.2px" zoomAndPan="magnify"><title>Registrar usuario y guardar pedido</title><defs/><g><text fill="#000000" font-family="sans-serif" font-size="8.4" font-weight="bold" lengthAdjust="spacing" textLength="140.0359" x="329.0647" y="16.8036">Registrar usuario y guardar pedido</text><line style="stroke:#181818;stroke-width:0.3;stroke-dasharray:5.0,5.0;" x1="19.2" x2="19.2" y1="71.7599" y2="487.92"/><line style="stroke:#181818;stroke-width:0.3;stroke-dasharray:5.0,5.0;" x1="142.2529" x2="142.2529" y1="71.7599" y2="487.92"/><line style="stroke:#181818;stroke-width:0.3;stroke-dasharray:5.0,5.0;" x1="196.926" x2="196.926" y1="71.7599" y2="487.92"/><line style="stroke:#181818;stroke-width:0.3;stroke-dasharray:5.0,5.0;" x1="278.1114" x2="278.1114" y1="71.7599" y2="487.92"/><line style="stroke:#181818;stroke-width:0.3;stroke-dasharray:5.0,5.0;" x1="345.4693" x2="345.4693" y1="71.7599" y2="487.92"/><line style="stroke:#181818;stroke-width:0.3;stroke-dasharray:5.0,5.0;" x1="376.3368" x2="376.3368" y1="150.5399" y2="487.92"/><line style="stroke:#181818;stroke-width:0.3;stroke-dasharray:5.0,5.0;" x1="417.4691" x2="417.4691" y1="307.7399" y2="487.92"/><line style="stroke:#181818;stroke-width:0.3;stroke-dasharray:5.0,5.0;" x1="467.9506" x2="467.9506" y1="71.7599" y2="487.92"/><line style="stroke:#181818;stroke-width:0.3;stroke-dasharray:5.0,5.0;" x1="551.7989" x2="551.7989" y1="71.7599" y2="487.92"/><line style="stroke:#181818;stroke-width:0.3;stroke-dasharray:5.0,5.0;" x1="611.1339" x2="611.1339" y1="71.7599" y2="487.92"/><line style="stroke:#181818;stroke-width:0.3;stroke-dasharray:5.0,5.0;" x1="766.6643" x2="766.6643" y1="71.7599" y2="487.92"/><text fill="#000000" font-family="sans-serif" font-size="8.4" lengthAdjust="spacing" textLength="28.9379" x="3" y="69.4835">Usuario</text><ellipse cx="19.2689" cy="30.78" fill="#E2E2F0" rx="4.8" ry="4.8" style="stroke:#181818;stroke-width:0.3;"/><path d="M19.2689,35.58 L19.2689,51.78 M11.4689,40.38 L27.0689,40.38 M19.2689,51.78 L11.4689,60.78 M19.2689,51.78 L27.0689,60.78 " fill="none" style="stroke:#181818;stroke-width:0.3;"/><text fill="#000000" font-family="sans-serif" font-size="8.4" lengthAdjust="spacing" textLength="28.9379" x="3" y="495.1236">Usuario</text><ellipse cx="19.2689" cy="502.4999" fill="#E2E2F0" rx="4.8" ry="4.8" style="stroke:#181818;stroke-width:0.3;"/><path d="M19.2689,507.2999 L19.2689,523.4999 M11.4689,512.0999 L27.0689,512.0999 M19.2689,523.4999 L11.4689,532.4999 M19.2689,523.4999 L27.0689,532.4999 " fill="none" style="stroke:#181818;stroke-width:0.3;"/><rect fill="#FFFF99" height="18.48" rx="1.5" ry="1.5" style="stroke:#181818;stroke-width:0.3;" width="39.6731" x="122.4529" y="52.68"/><text fill="#000000" font-family="sans-serif" font-size="8.4" lengthAdjust="spacing" textLength="31.2731" x="126.6529" y="64.6835">Registro</text><rect fill="#FFFF99" height="18.48" rx="1.5" ry="1.5" style="stroke:#181818;stroke-width:0.3;" width="39.6731" x="122.4529" y="487.32"/><text fill="#000000" font-family="sans-serif" font-size="8.4" lengthAdjust="spacing" textLength="31.2731" x="126.6529" y="499.3236">Registro</text><rect fill="#FFFF99" height="18.48" rx="1.5" ry="1.5" style="stroke:#181818;stroke-width:0.3;" width="57.8758" x="168.126" y="52.68"/><text fill="#000000" font-family="sans-serif" font-size="8.4" lengthAdjust="spacing" textLength="49.4758" x="172.326" y="64.6835">Confirmaci&#243;n</text><rect fill="#FFFF99" height="18.48" rx="1.5" ry="1.5" style="stroke:#181818;stroke-width:0.3;" width="57.8758" x="168.126" y="487.32"/><text fill="#000000" font-family="sans-serif" font-size="8.4" lengthAdjust="spacing" textLength="49.4758" x="172.326" y="499.3236">Confirmaci&#243;n</text><rect fill="#FF9999" height="28.5599" rx="1.5" ry="1.5" style="stroke:#181818;stroke-width:0.3;" width="43.8731" x="256.5114" y="42.6"/><text fill="#000000" font-family="sans-serif" font-size="8.4" lengthAdjust="spacing" textLength="35.4731" x="260.7114" y="54.6036">MiniStore</text><text fill="#000000" font-family="sans-serif" font-size="8.4" lengthAdjust="spacing" textLength="30.3323" x="263.2818" y="64.6835">(servlet)</text><rect fill="#FF9999" height="28.5599" rx="1.5" ry="1.5" style="stroke:#181818;stroke-width:0.3;" width="43.8731" x="256.5114" y="487.32"/><text fill="#000000" font-family="sans-serif" font-size="8.4" lengthAdjust="spacing" textLength="35.4731" x="260.7114" y="499.3236">MiniStore</text><text fill="#000000" font-family="sans-serif" font-size="8.4" lengthAdjust="spacing" textLength="30.3323" x="263.2818" y="509.4035">(servlet)</text><rect fill="#99FF99" height="18.48" rx="1.5" ry="1.5" style="stroke:#181818;stroke-width:0.3;" width="24.2675" x="333.4693" y="52.68"/><text fill="#000000" font-family="sans-serif" font-size="8.4" lengthAdjust="spacing" textLength="15.8675" x="337.6693" y="64.6835">Cart</text><rect fill="#99FF99" height="18.48" rx="1.5" ry="1.5" style="stroke:#181818;stroke-width:0.3;" width="24.2675" x="333.4693" y="487.32"/><text fill="#000000" font-family="sans-serif" font-size="8.4" lengthAdjust="spacing" textLength="15.8675" x="337.6693" y="499.3236">Cart</text><rect fill="#99FF99" height="18.48" rx="1.5" ry="1.5" style="stroke:#181818;stroke-width:0.3;" width="26.1323" x="363.7368" y="487.32"/><text fill="#000000" font-family="sans-serif" font-size="8.4" lengthAdjust="spacing" textLength="17.7323" x="367.9368" y="499.3236">User</text><rect fill="#99FF99" height="18.48" rx="1.5" ry="1.5" style="stroke:#181818;stroke-width:0.3;" width="43.8815" x="395.8691" y="487.32"/><text fill="#000000" font-family="sans-serif" font-size="8.4" lengthAdjust="spacing" textLength="35.4815" x="400.0691" y="499.3236">Purchase</text><rect fill="#FFA500" height="18.48" rx="1.5" ry="1.5" style="stroke:#181818;stroke-width:0.3;" width="45.2842" x="445.7506" y="52.68"/><text fill="#000000" font-family="sans-serif" font-size="8.4" lengthAdjust="spacing" textLength="36.8842" x="449.9506" y="64.6835">DataBase</text><rect fill="#FFA500" height="18.48" rx="1.5" ry="1.5" style="stroke:#181818;stroke-width:0.3;" width="45.2842" x="445.7506" y="487.32"/><text fill="#000000" font-family="sans-serif" font-size="8.4" lengthAdjust="spacing" textLength="36.8842" x="449.9506" y="499.3236">DataBase</text><rect fill="#FFA500" height="18.48" rx="1.5" ry="1.5" style="stroke:#181818;stroke-width:0.3;" width="44.3351" x="530.1989" y="52.68"/><text fill="#000000" font-family="sans-serif" font-size="8.4" lengthAdjust="spacing" textLength="35.9351" x="534.3989" y="64.6835">UserDAO</text><rect fill="#FFA500" height="18.48" rx="1.5" ry="1.5" style="stroke:#181818;stroke-width:0.3;" width="44.3351" x="530.1989" y="487.32"/><text fill="#000000" font-family="sans-serif" font-size="8.4" lengthAdjust="spacing" textLength="35.9351" x="534.3989" y="499.3236">UserDAO</text><rect fill="#FFA500" height="18.48" rx="1.5" ry="1.5" style="stroke:#181818;stroke-width:0.3;" width="62.0842" x="580.5339" y="52.68"/><text fill="#000000" font-family="sans-serif" font-size="8.4" lengthAdjust="spacing" textLength="53.6842" x="584.7339" y="64.6835">PurchaseDAO</text><rect fill="#FFA500" height="18.48" rx="1.5" ry="1.5" style="stroke:#181818;stroke-width:0.3;" width="62.0842" x="580.5339" y="487.32"/><text fill="#000000" font-family="sans-serif" font-size="8.4" lengthAdjust="spacing" textLength="53.6842" x="584.7339" y="499.3236">PurchaseDAO</text><text fill="#000000" font-family="sans-serif" font-size="8.4" lengthAdjust="spacing" textLength="53.701" x="738.4643" y="69.4835">Base de datos</text><path d="M756.3148,40.08 C756.3148,34.08 767.1148,34.08 767.1148,34.08 C767.1148,34.08 777.9148,34.08 777.9148,40.08 L777.9148,55.68 C777.9148,61.68 767.1148,61.68 767.1148,61.68 C767.1148,61.68 756.3148,61.68 756.3148,55.68 L756.3148,40.08 " fill="#FFA500" style="stroke:#181818;stroke-width:0.8999999999999999;"/><path d="M756.3148,40.08 C756.3148,46.08 767.1148,46.08 767.1148,46.08 C767.1148,46.08 777.9148,46.08 777.9148,40.08 " fill="none" style="stroke:#181818;stroke-width:0.8999999999999999;"/><text fill="#000000" font-family="sans-serif" font-size="8.4" lengthAdjust="spacing" textLength="53.701" x="738.4643" y="495.1236">Base de datos</text><path d="M756.3148,503.3999 C756.3148,497.3999 767.1148,497.3999 767.1148,497.3999 C767.1148,497.3999 777.9148,497.3999 777.9148,503.3999 L777.9148,518.9999 C777.9148,524.9999 767.1148,524.9999 767.1148,524.9999 C767.1148,524.9999 756.3148,524.9999 756.3148,518.9999 L756.3148,503.3999 " fill="#FFA500" style="stroke:#181818;stroke-width:0.8999999999999999;"/><path d="M756.3148,503.3999 C756.3148,509.3999 767.1148,509.3999 767.1148,509.3999 C767.1148,509.3999 777.9148,509.3999 777.9148,503.3999 " fill="none" style="stroke:#181818;stroke-width:0.8999999999999999;"/><polygon fill="#181818" points="135.0895,107.0399,141.0895,109.4399,135.0895,111.8399,137.4895,109.4399" style="stroke:#181818;stroke-width:0.6;"/><line style="stroke:#181818;stroke-width:0.6;stroke-dasharray:2.0,2.0;" x1="19.2689" x2="138.6895" y1="109.4399" y2="109.4399"/><text fill="#000000" font-family="sans-serif" font-size="7.8" font-weight="bold" lengthAdjust="spacing" textLength="4.3368" x="23.4689" y="96.7661">1</text><text fill="#000000" font-family="sans-serif" font-size="7.8" lengthAdjust="spacing" textLength="101.8837" x="30.2057" y="87.4061">Introduce correo, contrase&#241;a,</text><text fill="#000000" font-family="sans-serif" font-size="7.8" lengthAdjust="spacing" textLength="81.9391" x="30.2057" y="96.7661">tipo y n&#250;mero de tarjeta</text><text fill="#000000" font-family="sans-serif" font-size="7.8" lengthAdjust="spacing" textLength="100.5733" x="30.2057" y="106.1261">despu&#233;s de rellenar el carrito</text><polygon fill="#181818" points="271.248,124.7999,277.248,127.1999,271.248,129.5999,273.648,127.1999" style="stroke:#181818;stroke-width:0.6;"/><line style="stroke:#181818;stroke-width:0.6;" x1="142.2895" x2="274.848" y1="127.1999" y2="127.1999"/><text fill="#000000" font-family="sans-serif" font-size="7.8" font-weight="bold" lengthAdjust="spacing" textLength="4.3368" x="146.4895" y="123.8861">2</text><text fill="#000000" font-family="sans-serif" font-size="7.8" lengthAdjust="spacing" textLength="47.6659" x="153.2263" y="123.8861">registerUser()</text><line style="stroke:#181818;stroke-width:0.6;" x1="362.5368" x2="356.5368" y1="144.96" y2="142.56"/><line style="stroke:#181818;stroke-width:0.6;" x1="362.5368" x2="356.5368" y1="144.96" y2="147.36"/><line style="stroke:#181818;stroke-width:0.6;stroke-dasharray:2.0,2.0;" x1="278.448" x2="363.1368" y1="144.96" y2="144.96"/><text fill="#000000" font-family="sans-serif" font-size="7.8" font-weight="bold" lengthAdjust="spacing" textLength="4.3368" x="282.648" y="141.6462">3</text><text fill="#000000" font-family="sans-serif" font-size="7.8" lengthAdjust="spacing" textLength="30.3498" x="289.3848" y="141.6462">&#171;create&#187;</text><rect fill="#99FF99" height="18.48" rx="1.5" ry="1.5" style="stroke:#181818;stroke-width:0.3;" width="26.1323" x="363.7368" y="131.9999"/><text fill="#000000" font-family="sans-serif" font-size="8.4" lengthAdjust="spacing" textLength="17.7323" x="367.9368" y="144.0035">User</text><line style="stroke:#181818;stroke-width:0.6;" x1="279.048" x2="285.048" y1="170.0399" y2="167.6399"/><line style="stroke:#181818;stroke-width:0.6;" x1="279.048" x2="285.048" y1="170.0399" y2="172.4399"/><line style="stroke:#181818;stroke-width:0.6;stroke-dasharray:2.0,2.0;" x1="278.448" x2="376.203" y1="170.0399" y2="170.0399"/><text fill="#000000" font-family="sans-serif" font-size="7.8" font-weight="bold" lengthAdjust="spacing" textLength="4.3368" x="288.648" y="166.7261">4</text><text fill="#000000" font-family="sans-serif" font-size="7.8" lengthAdjust="spacing" textLength="15.171" x="295.3848" y="166.7261">user</text><polygon fill="#181818" points="461.1927,185.3999,467.1927,187.7999,461.1927,190.1999,463.5927,187.7999" style="stroke:#181818;stroke-width:0.6;"/><line style="stroke:#181818;stroke-width:0.6;" x1="278.448" x2="464.7927" y1="187.7999" y2="187.7999"/><text fill="#000000" font-family="sans-serif" font-size="7.8" font-weight="bold" lengthAdjust="spacing" textLength="4.3368" x="282.648" y="184.4861">5</text><text fill="#000000" font-family="sans-serif" font-size="7.8" lengthAdjust="spacing" textLength="62.8369" x="289.3848" y="184.4861">registerUser(user)</text><polygon fill="#181818" points="545.1664,203.1599,551.1664,205.5599,545.1664,207.9599,547.5664,205.5599" style="stroke:#181818;stroke-width:0.6;"/><line style="stroke:#181818;stroke-width:0.6;" x1="468.3927" x2="548.7664" y1="205.5599" y2="205.5599"/><text fill="#000000" font-family="sans-serif" font-size="7.8" font-weight="bold" lengthAdjust="spacing" textLength="4.3368" x="472.5927" y="202.2461">6</text><text fill="#000000" font-family="sans-serif" font-size="7.8" lengthAdjust="spacing" textLength="62.8369" x="479.3295" y="202.2461">registerUser(user)</text><polygon fill="#181818" points="759.9148,220.9199,765.9148,223.3199,759.9148,225.7199,762.3148,223.3199" style="stroke:#181818;stroke-width:0.6;"/><line style="stroke:#181818;stroke-width:0.6;" x1="552.3664" x2="763.5148" y1="223.3199" y2="223.3199"/><text fill="#000000" font-family="sans-serif" font-size="7.8" font-weight="bold" lengthAdjust="spacing" textLength="4.3368" x="556.5664" y="220.0061">7</text><text fill="#000000" font-family="sans-serif" font-size="7.8" lengthAdjust="spacing" textLength="93.6547" x="563.3032" y="220.0061">inserta en la base de datos</text><line style="stroke:#181818;stroke-width:0.6;" x1="279.048" x2="285.048" y1="241.0799" y2="238.6799"/><line style="stroke:#181818;stroke-width:0.6;" x1="279.048" x2="285.048" y1="241.0799" y2="243.4799"/><line style="stroke:#181818;stroke-width:0.6;stroke-dasharray:2.0,2.0;" x1="278.448" x2="467.7927" y1="241.0799" y2="241.0799"/><text fill="#000000" font-family="sans-serif" font-size="7.8" font-weight="bold" lengthAdjust="spacing" textLength="4.3368" x="288.648" y="237.7661">8</text><text fill="#000000" font-family="sans-serif" font-size="7.8" lengthAdjust="spacing" textLength="8.2368" x="295.3848" y="237.7661">ok</text><line style="stroke:#181818;stroke-width:0.6;" x1="278.448" x2="303.648" y1="258.84" y2="258.84"/><line style="stroke:#181818;stroke-width:0.6;" x1="303.648" x2="303.648" y1="258.84" y2="266.64"/><line style="stroke:#181818;stroke-width:0.6;" x1="279.048" x2="303.648" y1="266.64" y2="266.64"/><polygon fill="#181818" points="285.048,264.24,279.048,266.64,285.048,269.04,282.648,266.64" style="stroke:#181818;stroke-width:0.6;"/><text fill="#000000" font-family="sans-serif" font-size="7.8" font-weight="bold" lengthAdjust="spacing" textLength="4.3368" x="282.648" y="255.5261">9</text><text fill="#000000" font-family="sans-serif" font-size="7.8" lengthAdjust="spacing" textLength="45.9343" x="289.3848" y="255.5261">retrieveCart()</text><polygon fill="#181818" points="285.048,282,279.048,284.4,285.048,286.8,282.648,284.4" style="stroke:#181818;stroke-width:0.6;"/><line style="stroke:#181818;stroke-width:0.6;stroke-dasharray:2.0,2.0;" x1="281.448" x2="345.003" y1="284.4" y2="284.4"/><text fill="#000000" font-family="sans-serif" font-size="7.8" font-weight="bold" lengthAdjust="spacing" textLength="8.6736" x="288.648" y="281.0862">10</text><text fill="#000000" font-family="sans-serif" font-size="7.8" lengthAdjust="spacing" textLength="2.1684" x="299.7216" y="281.0862">&#160;</text><line style="stroke:#181818;stroke-width:0.6;" x1="394.6691" x2="388.6691" y1="302.16" y2="299.76"/><line style="stroke:#181818;stroke-width:0.6;" x1="394.6691" x2="388.6691" y1="302.16" y2="304.56"/><line style="stroke:#181818;stroke-width:0.6;stroke-dasharray:2.0,2.0;" x1="278.448" x2="395.2691" y1="302.16" y2="302.16"/><text fill="#000000" font-family="sans-serif" font-size="7.8" font-weight="bold" lengthAdjust="spacing" textLength="8.6736" x="282.648" y="298.8462">11</text><text fill="#000000" font-family="sans-serif" font-size="7.8" lengthAdjust="spacing" textLength="30.3498" x="293.7216" y="298.8462">&#171;create&#187;</text><rect fill="#99FF99" height="18.48" rx="1.5" ry="1.5" style="stroke:#181818;stroke-width:0.3;" width="43.8815" x="395.8691" y="289.2"/><text fill="#000000" font-family="sans-serif" font-size="8.4" lengthAdjust="spacing" textLength="35.4815" x="400.0691" y="301.2035">Purchase</text><line style="stroke:#181818;stroke-width:0.6;" x1="279.048" x2="285.048" y1="327.2399" y2="324.8399"/><line style="stroke:#181818;stroke-width:0.6;" x1="279.048" x2="285.048" y1="327.2399" y2="329.6399"/><line style="stroke:#181818;stroke-width:0.6;stroke-dasharray:2.0,2.0;" x1="278.448" x2="417.2099" y1="327.2399" y2="327.2399"/><text fill="#000000" font-family="sans-serif" font-size="7.8" font-weight="bold" lengthAdjust="spacing" textLength="8.6736" x="288.648" y="323.9261">12</text><text fill="#000000" font-family="sans-serif" font-size="7.8" lengthAdjust="spacing" textLength="32.0814" x="299.7216" y="323.9261">purchase</text><polygon fill="#181818" points="461.1927,342.5999,467.1927,344.9999,461.1927,347.3999,463.5927,344.9999" style="stroke:#181818;stroke-width:0.6;"/><line style="stroke:#181818;stroke-width:0.6;" x1="278.448" x2="464.7927" y1="344.9999" y2="344.9999"/><text fill="#000000" font-family="sans-serif" font-size="7.8" font-weight="bold" lengthAdjust="spacing" textLength="8.6736" x="282.648" y="341.6861">13</text><text fill="#000000" font-family="sans-serif" font-size="7.8" lengthAdjust="spacing" textLength="83.2339" x="293.7216" y="341.6861">addPurchase(purchase)</text><polygon fill="#181818" points="604.376,360.3599,610.376,362.7599,604.376,365.1599,606.776,362.7599" style="stroke:#181818;stroke-width:0.6;"/><line style="stroke:#181818;stroke-width:0.6;" x1="468.3927" x2="607.976" y1="362.7599" y2="362.7599"/><text fill="#000000" font-family="sans-serif" font-size="7.8" font-weight="bold" lengthAdjust="spacing" textLength="8.6736" x="472.5927" y="359.4461">14</text><text fill="#000000" font-family="sans-serif" font-size="7.8" lengthAdjust="spacing" textLength="83.2339" x="483.6663" y="359.4461">addPurchase(purchase)</text><polygon fill="#181818" points="759.9148,378.1199,765.9148,380.5199,759.9148,382.9199,762.3148,380.5199" style="stroke:#181818;stroke-width:0.6;"/><line style="stroke:#181818;stroke-width:0.6;" x1="611.576" x2="763.5148" y1="380.5199" y2="380.5199"/><text fill="#000000" font-family="sans-serif" font-size="7.8" font-weight="bold" lengthAdjust="spacing" textLength="8.6736" x="615.776" y="377.2061">15</text><text fill="#000000" font-family="sans-serif" font-size="7.8" lengthAdjust="spacing" textLength="130.0651" x="626.8496" y="377.2061">inserta la compra en la base de datos</text><line style="stroke:#181818;stroke-width:0.6;" x1="279.048" x2="285.048" y1="398.28" y2="395.88"/><line style="stroke:#181818;stroke-width:0.6;" x1="279.048" x2="285.048" y1="398.28" y2="400.68"/><line style="stroke:#181818;stroke-width:0.6;stroke-dasharray:2.0,2.0;" x1="278.448" x2="467.7927" y1="398.28" y2="398.28"/><text fill="#000000" font-family="sans-serif" font-size="7.8" font-weight="bold" lengthAdjust="spacing" textLength="8.6736" x="288.648" y="394.9662">16</text><text fill="#000000" font-family="sans-serif" font-size="7.8" lengthAdjust="spacing" textLength="8.2368" x="299.7216" y="394.9662">ok</text><polygon fill="#181818" points="338.403,413.64,344.403,416.04,338.403,418.44,340.803,416.04" style="stroke:#181818;stroke-width:0.6;"/><line style="stroke:#181818;stroke-width:0.6;" x1="278.448" x2="342.003" y1="416.04" y2="416.04"/><text fill="#000000" font-family="sans-serif" font-size="7.8" font-weight="bold" lengthAdjust="spacing" textLength="8.6736" x="282.648" y="412.7262">17</text><text fill="#000000" font-family="sans-serif" font-size="7.8" lengthAdjust="spacing" textLength="22.0974" x="293.7216" y="412.7262">clear()</text><line style="stroke:#181818;stroke-width:0.6;" x1="278.448" x2="303.648" y1="433.8" y2="433.8"/><line style="stroke:#181818;stroke-width:0.6;" x1="303.648" x2="303.648" y1="433.8" y2="441.6"/><line style="stroke:#181818;stroke-width:0.6;" x1="279.048" x2="303.648" y1="441.6" y2="441.6"/><polygon fill="#181818" points="285.048,439.2,279.048,441.6,285.048,444,282.648,441.6" style="stroke:#181818;stroke-width:0.6;"/><text fill="#000000" font-family="sans-serif" font-size="7.8" font-weight="bold" lengthAdjust="spacing" textLength="8.6736" x="282.648" y="430.4862">18</text><text fill="#000000" font-family="sans-serif" font-size="7.8" lengthAdjust="spacing" textLength="47.6815" x="293.7216" y="430.4862">changeView()</text><polygon fill="#181818" points="203.6639,456.96,197.6639,459.36,203.6639,461.76,201.2639,459.36" style="stroke:#181818;stroke-width:0.6;"/><line style="stroke:#181818;stroke-width:0.6;stroke-dasharray:2.0,2.0;" x1="200.0639" x2="277.848" y1="459.36" y2="459.36"/><text fill="#000000" font-family="sans-serif" font-size="7.8" font-weight="bold" lengthAdjust="spacing" textLength="8.6736" x="207.2639" y="456.0462">19</text><text fill="#000000" font-family="sans-serif" font-size="7.8" lengthAdjust="spacing" textLength="55.9104" x="218.3375" y="456.0462">Cambiar la vista</text><polygon fill="#181818" points="25.8689,474.72,19.8689,477.12,25.8689,479.52,23.4689,477.12" style="stroke:#181818;stroke-width:0.6;"/><line style="stroke:#181818;stroke-width:0.6;stroke-dasharray:2.0,2.0;" x1="22.2689" x2="196.4639" y1="477.12" y2="477.12"/><text fill="#000000" font-family="sans-serif" font-size="7.8" font-weight="bold" lengthAdjust="spacing" textLength="8.6736" x="29.4689" y="473.8062">20</text><text fill="#000000" font-family="sans-serif" font-size="7.8" lengthAdjust="spacing" textLength="111.8365" x="40.5426" y="473.8062">Muestra el importe de la compra</text><!--SRC=[fLInRjim4Dtv5KGor0QYUfPW26ZZfKFGeaOwUJbJ5uUjHB8dqaK_gMFHhQj_h4VPTAZOJP2M423fTE_kyTqJNzrxx_fgDdCj61-wzhMotQp7hm6DmgBHi27e10HlJUZMI49uxLkK7t6ZUqz0ClG1I5lvNMxueU68mqOtLWXGtfAytNyN3iXhfHttIMWhePTBlJ71oPDrUSUhB4UuYsjhxZHreFJkbxc8y1JnsfedW3VQw2NJmPMPz4ZR5lrqm2_tBtjSMJx2NVEpV6PTbkL9lrlkyI-u3u7KFVJuKjm2FBnz3cS9p0PFU2xUl9SlnIMUJs4Jhc5kwyZjOc3Oy0NUzeFwY_Jj34uSd2EBeZwuf9Bl3Dkc2GgbiaHeh_ZE8Iwn-mbNA-ErYrOqkzyTih-ucGVwZ1vMfi7UXTsFFWO9snODUnLRgO18UoiEHepDzfweE2tw52dAD9aAHGWU1z54yWsJguT89UVpVK9T2q8VoF2_aMVMnp4zgXpJfk8umw9ESpcRbsPsgBSUwcd3KGyIZMn1hdEXZmJcywB8ADWlERLipvuqRZ5Qd_Ty13CsXf88oG5Z8L9q9CQe_qE6EwcG2mHDar8dANEiKUR1lwNdDZqh5sl51vwZ_n0kYb99rI9G9bUkA5DWFt_I-2rFYD3ixAguKBVMR4cciUMPWnWTRSNWYk67gEHDm7ZuHlVgpbdo0-dZPiGV]--></g></svg>